<svg xmlns="http://www.w3.org/2000/svg" id="canvas" viewBox="248.132 316.308 1141.381 316.833"><path d="M 272.97,327.58 C 272.30 329.09, 272.16 330.86, 271.46 335.42 C 270.77 339.99, 270.52 342.77, 269.48 350.41 C 268.44 358.05, 267.70 362.99, 266.24 373.61 C 264.79 384.24, 263.92 390.35, 262.22 403.54 C 260.52 416.73, 259.36 424.71, 257.75 439.55 C 256.14 454.39, 255.38 463.12, 254.18 477.75 C 252.98 492.39, 252.31 500.63, 251.74 512.74 C 251.18 524.86, 250.92 530.94, 251.34 538.34 C 251.76 545.74, 252.14 548.73, 253.82 549.75 C 255.50 550.76, 257.32 547.92, 259.74 543.43 C 262.16 538.94, 263.75 533.79, 265.91 527.29 C 268.06 520.79, 270.05 514.35, 270.50 510.95 C 270.96 507.55, 269.57 507.17, 268.17 510.28 C 266.76 513.39, 265.55 520.05, 263.48 526.50 C 261.40 532.94, 259.60 538.03, 257.79 542.51 C 255.97 546.99, 255.41 549.75, 254.41 548.91 C 253.41 548.06, 253.08 545.49, 252.78 538.27 C 252.48 531.04, 252.42 524.88, 252.90 512.79 C 253.39 500.71, 254.03 492.46, 255.21 477.84 C 256.38 463.21, 257.14 454.49, 258.78 439.66 C 260.42 424.83, 261.61 416.86, 263.40 403.70 C 265.19 390.53, 266.12 384.43, 267.73 373.83 C 269.35 363.23, 270.22 358.31, 271.46 350.71 C 272.70 343.10, 273.26 340.36, 273.93 335.79 C 274.60 331.22, 275.01 329.50, 274.82 327.86 C 274.62 326.21, 273.64 326.06, 272.97 327.58" style="stroke: black; fill: black;"/><path d="M 336.04,341.09 C 337.08 340.36, 337.95 338.86, 339.22 336.69 C 340.48 334.51, 341.53 332.79, 342.35 330.22 C 343.18 327.64, 343.53 325.83, 343.34 323.82 C 343.15 321.80, 342.69 320.98, 341.40 320.16 C 340.10 319.35, 339.03 318.94, 336.87 319.74 C 334.72 320.53, 333.60 321.40, 330.65 324.13 C 327.69 326.86, 326.04 328.89, 322.11 333.40 C 318.19 337.90, 315.82 340.59, 311.02 346.67 C 306.23 352.75, 303.42 356.35, 298.12 363.80 C 292.81 371.25, 289.72 375.70, 284.49 383.91 C 279.26 392.11, 276.50 396.63, 271.98 404.82 C 267.46 413.02, 265.17 417.20, 261.88 424.87 C 258.59 432.55, 257.18 436.48, 255.52 443.22 C 253.85 449.95, 253.42 453.12, 253.55 458.54 C 253.69 463.95, 254.19 466.33, 256.21 470.30 C 258.23 474.27, 259.97 475.98, 263.65 478.39 C 267.32 480.80, 269.78 481.54, 274.57 482.35 C 279.37 483.15, 282.23 483.12, 287.61 482.41 C 292.99 481.70, 296.39 480.45, 301.48 478.78 C 306.57 477.11, 309.24 475.86, 313.05 474.06 C 316.87 472.25, 319.22 470.93, 320.56 469.75 C 321.91 468.56, 321.50 467.81, 319.77 468.15 C 318.04 468.49, 315.74 469.87, 311.90 471.45 C 308.06 473.02, 305.51 474.39, 300.57 476.03 C 295.64 477.66, 292.34 478.92, 287.24 479.62 C 282.13 480.32, 279.46 480.25, 275.04 479.53 C 270.62 478.82, 268.48 478.11, 265.16 476.03 C 261.84 473.95, 260.33 472.65, 258.44 469.14 C 256.55 465.62, 255.94 463.56, 255.71 458.46 C 255.48 453.36, 255.77 450.23, 257.30 443.64 C 258.83 437.05, 260.16 433.12, 263.36 425.50 C 266.57 417.89, 268.83 413.71, 273.31 405.56 C 277.80 397.41, 280.56 392.90, 285.80 384.74 C 291.04 376.59, 294.14 372.15, 299.50 364.80 C 304.87 357.44, 307.70 353.87, 312.62 347.97 C 317.55 342.07, 320.01 339.45, 324.14 335.28 C 328.27 331.11, 330.38 329.55, 333.29 327.14 C 336.19 324.72, 337.24 324.29, 338.68 323.22 C 340.12 322.15, 340.37 321.82, 340.47 321.79 C 340.58 321.77, 339.96 321.81, 339.19 323.09 C 338.43 324.37, 337.58 325.82, 336.64 328.17 C 335.70 330.52, 335.02 332.41, 334.49 334.85 C 333.96 337.28, 333.68 339.09, 333.99 340.34 C 334.30 341.59, 334.99 341.82, 336.04 341.09" style="stroke: black; fill: black;"/><path d="M 368.79,428.35 C 367.90 427.58, 366.53 426.40, 363.99 426.49 C 361.45 426.57, 359.52 426.91, 356.10 428.76 C 352.67 430.61, 350.33 431.85, 346.85 435.74 C 343.37 439.63, 341.47 442.52, 338.70 448.21 C 335.93 453.89, 334.45 457.68, 332.98 464.18 C 331.51 470.68, 331.06 474.52, 331.35 480.70 C 331.64 486.87, 332.17 490.52, 334.45 495.06 C 336.72 499.59, 338.85 501.76, 342.73 503.37 C 346.61 504.99, 349.38 504.86, 353.85 503.13 C 358.31 501.41, 360.90 499.34, 365.06 494.74 C 369.22 490.13, 371.55 486.68, 374.63 480.11 C 377.71 473.53, 379.02 469.15, 380.46 461.86 C 381.89 454.56, 382.19 450.31, 381.80 443.63 C 381.41 436.96, 380.59 433.38, 378.50 428.49 C 376.40 423.59, 374.70 421.50, 371.33 419.17 C 367.97 416.84, 365.45 416.50, 361.69 416.82 C 357.94 417.14, 355.53 418.54, 352.56 420.78 C 349.60 423.03, 347.92 424.86, 346.87 428.03 C 345.83 431.20, 345.82 433.73, 347.35 436.65 C 348.89 439.58, 350.75 441.26, 354.54 442.65 C 358.32 444.04, 360.93 444.02, 366.26 443.61 C 371.59 443.19, 374.94 442.43, 381.19 440.56 C 387.44 438.68, 391.16 436.93, 397.52 434.23 C 403.87 431.52, 407.34 429.42, 412.96 427.02 C 418.57 424.62, 421.40 423.27, 425.58 422.21 C 429.75 421.16, 431.44 421.01, 433.83 421.75 C 436.22 422.50, 436.67 422.92, 437.51 425.95 C 438.36 428.98, 438.43 431.35, 438.04 436.90 C 437.66 442.44, 436.96 446.36, 435.58 453.67 C 434.21 460.98, 432.95 465.87, 431.17 473.44 C 429.38 481.01, 428.05 485.48, 426.67 491.51 C 425.29 497.54, 424.16 500.47, 424.26 503.60 C 424.36 506.74, 425.50 507.90, 427.16 507.20 C 428.81 506.50, 430.01 504.66, 432.54 500.10 C 435.08 495.54, 436.60 491.34, 439.82 484.40 C 443.05 477.45, 445.13 472.71, 448.67 465.37 C 452.20 458.03, 454.40 453.47, 457.51 447.70 C 460.61 441.92, 462.49 439.23, 464.19 436.51 C 465.90 433.79, 465.73 433.24, 466.03 434.10 C 466.34 434.96, 466.04 436.59, 465.72 440.83 C 465.40 445.08, 464.88 448.77, 464.44 455.31 C 464.00 461.85, 463.58 466.56, 463.54 473.54 C 463.50 480.52, 463.25 484.66, 464.25 490.21 C 465.25 495.76, 465.91 498.70, 468.53 501.29 C 471.15 503.88, 473.42 504.52, 477.37 503.14 C 481.32 501.77, 483.58 499.67, 488.28 494.39 C 492.97 489.12, 495.66 485.09, 500.85 476.78 C 506.03 468.46, 508.97 463.29, 514.21 452.82 C 519.45 442.35, 522.06 436.12, 527.06 424.43 C 532.06 412.73, 534.72 405.83, 539.20 394.34 C 543.69 382.84, 545.96 376.62, 549.48 366.95 C 553.00 357.28, 554.54 352.68, 556.80 345.99 C 559.06 339.30, 560.15 336.69, 560.78 333.50 C 561.40 330.31, 560.70 329.54, 559.92 330.04 C 559.15 330.55, 558.17 331.84, 556.89 336.01 C 555.62 340.18, 554.94 343.39, 553.56 350.88 C 552.17 358.37, 551.44 363.35, 549.97 373.45 C 548.49 383.56, 547.79 389.68, 546.20 401.40 C 544.60 413.12, 543.65 419.97, 541.97 432.05 C 540.30 444.13, 539.33 450.82, 537.82 461.81 C 536.31 472.80, 535.48 478.64, 534.42 486.99 C 533.36 495.35, 532.60 499.05, 532.52 503.57 C 532.44 508.10, 533.01 509.37, 534.02 509.63 C 535.03 509.89, 536.36 508.52, 537.56 504.88 C 538.75 501.24, 539.19 497.61, 540.00 491.42 C 540.80 485.23, 541.17 480.66, 541.58 473.92 C 541.99 467.17, 542.00 463.08, 542.05 457.69 C 542.10 452.30, 542.15 449.84, 541.84 446.97 C 541.52 444.09, 540.65 443.61, 540.48 443.29 C 540.30 442.98, 539.87 444.02, 540.96 445.37 C 542.05 446.73, 542.95 448.65, 545.93 450.05 C 548.91 451.45, 551.26 452.07, 555.85 452.38 C 560.44 452.68, 563.14 452.62, 568.87 451.59 C 574.59 450.55, 578.10 449.63, 584.47 447.19 C 590.83 444.76, 594.52 442.66, 600.68 439.42 C 606.83 436.17, 610.17 433.96, 615.23 430.98 C 620.29 428.00, 623.19 426.34, 625.98 424.51 C 628.76 422.69, 629.37 421.43, 629.15 421.86 C 628.92 422.30, 627.64 423.20, 624.84 426.71 C 622.03 430.22, 619.54 433.32, 615.12 439.41 C 610.70 445.49, 607.40 449.84, 602.74 457.14 C 598.07 464.43, 595.33 468.92, 591.79 475.90 C 588.26 482.88, 586.72 486.58, 585.06 492.03 C 583.41 497.48, 582.97 499.94, 583.52 503.13 C 584.08 506.31, 585.42 507.60, 587.84 507.95 C 590.25 508.29, 592.23 507.61, 595.58 504.85 C 598.94 502.08, 600.80 499.48, 604.60 494.12 C 608.41 488.76, 610.75 484.86, 614.61 478.04 C 618.48 471.21, 620.73 466.81, 623.92 459.99 C 627.11 453.16, 628.72 449.00, 630.58 443.92 C 632.44 438.85, 633.21 436.49, 633.22 434.60 C 633.24 432.72, 631.77 432.59, 630.64 434.50 C 629.52 436.42, 628.63 439.00, 627.60 444.18 C 626.57 449.36, 625.90 453.63, 625.50 460.40 C 625.10 467.17, 625.02 471.57, 625.62 478.04 C 626.22 484.51, 626.48 488.06, 628.49 492.75 C 630.51 497.45, 632.11 499.87, 635.69 501.52 C 639.26 503.17, 641.83 503.15, 646.37 501.01 C 650.91 498.88, 653.41 496.54, 658.40 490.84 C 663.39 485.14, 666.26 481.12, 671.31 472.51 C 676.35 463.89, 679.09 458.31, 683.62 447.78 C 688.14 437.24, 690.30 430.83, 693.92 419.82 C 697.55 408.81, 699.02 402.80, 701.75 392.73 C 704.49 382.65, 705.66 377.45, 707.59 369.44 C 709.51 361.44, 710.52 357.72, 711.39 352.70 C 712.26 347.69, 712.55 345.91, 711.93 344.38 C 711.32 342.85, 709.84 342.58, 708.31 345.05 C 706.79 347.51, 706.11 350.04, 704.29 356.69 C 702.46 363.33, 701.38 368.26, 699.18 378.29 C 696.98 388.31, 695.44 394.87, 693.29 406.80 C 691.13 418.73, 689.99 426.01, 688.40 437.94 C 686.81 449.87, 686.18 456.40, 685.33 466.46 C 684.48 476.51, 683.96 481.30, 684.14 488.23 C 684.33 495.15, 684.48 498.05, 686.26 501.08 C 688.04 504.12, 689.85 504.76, 693.04 503.42 C 696.23 502.07, 697.96 499.42, 702.21 494.35 C 706.47 489.28, 709.30 485.12, 714.32 478.08 C 719.33 471.04, 722.35 466.16, 727.29 459.16 C 732.23 452.16, 734.98 448.19, 739.02 443.07 C 743.07 437.96, 745.34 436.01, 747.50 433.58 C 749.66 431.15, 749.87 430.51, 749.82 430.93 C 749.77 431.35, 748.86 432.33, 747.26 435.69 C 745.66 439.04, 744.26 442.19, 741.83 447.70 C 739.39 453.22, 737.47 456.95, 735.08 463.26 C 732.70 469.56, 731.20 473.28, 729.89 479.24 C 728.59 485.20, 727.95 488.43, 728.56 493.04 C 729.18 497.65, 730.04 500.00, 732.98 502.28 C 735.92 504.56, 738.49 505.14, 743.27 504.44 C 748.05 503.75, 751.09 502.45, 756.89 498.82 C 762.68 495.19, 765.99 492.53, 772.25 486.29 C 778.51 480.05, 781.96 476.07, 788.19 467.62 C 794.42 459.16, 797.74 453.99, 803.42 444.01 C 809.10 434.04, 812.00 428.23, 816.60 417.75 C 821.20 407.27, 823.21 401.37, 826.43 391.63 C 829.65 381.88, 830.85 376.70, 832.71 369.01 C 834.57 361.33, 835.37 357.49, 835.74 353.20 C 836.10 348.90, 835.44 347.42, 834.52 347.53 C 833.60 347.65, 832.67 348.91, 831.13 353.77 C 829.59 358.62, 828.75 362.61, 826.83 371.81 C 824.91 381.00, 823.63 387.51, 821.52 399.75 C 819.40 412.00, 817.97 419.67, 816.27 433.04 C 814.58 446.41, 813.92 454.22, 813.05 466.60 C 812.19 478.99, 811.90 485.38, 811.93 494.97 C 811.95 504.56, 812.09 508.81, 813.17 514.53 C 814.25 520.26, 815.12 522.05, 817.33 523.61 C 819.55 525.17, 821.44 524.68, 824.24 522.33 C 827.03 519.98, 828.76 516.70, 831.32 511.85 C 833.89 507.00, 835.29 503.03, 837.07 498.08 C 838.85 493.14, 840.01 489.44, 840.24 487.11 C 840.46 484.78, 839.40 484.46, 838.19 486.43 C 836.98 488.40, 836.12 492.19, 834.18 496.98 C 832.24 501.77, 830.86 505.70, 828.49 510.38 C 826.11 515.05, 824.30 518.00, 822.30 520.35 C 820.29 522.70, 819.94 523.34, 818.46 522.11 C 816.98 520.88, 815.93 519.64, 814.90 514.21 C 813.87 508.78, 813.42 504.46, 813.29 494.96 C 813.16 485.46, 813.40 479.04, 814.24 466.68 C 815.07 454.33, 815.72 446.53, 817.46 433.19 C 819.19 419.85, 820.66 412.20, 822.90 400.00 C 825.13 387.80, 826.54 381.32, 828.62 372.20 C 830.70 363.08, 832.10 359.23, 833.31 354.38 C 834.52 349.54, 834.63 348.25, 834.69 347.96 C 834.75 347.67, 834.34 348.79, 833.61 352.93 C 832.89 357.06, 832.78 360.98, 831.08 368.64 C 829.39 376.29, 828.27 381.48, 825.13 391.20 C 822.00 400.92, 820.00 406.81, 815.43 417.24 C 810.86 427.67, 807.96 433.46, 802.28 443.36 C 796.60 453.26, 793.26 458.41, 787.01 466.74 C 780.76 475.07, 777.27 478.98, 771.01 485.02 C 764.76 491.06, 761.36 493.56, 755.73 496.94 C 750.11 500.31, 747.11 501.26, 742.89 501.90 C 738.67 502.54, 736.99 501.99, 734.64 500.15 C 732.29 498.32, 731.60 496.80, 731.13 492.72 C 730.66 488.64, 731.01 485.47, 732.28 479.77 C 733.55 474.06, 735.03 470.35, 737.49 464.19 C 739.94 458.02, 742.01 454.40, 744.56 448.94 C 747.11 443.48, 749.03 440.57, 750.24 436.88 C 751.45 433.18, 751.52 431.49, 750.61 430.46 C 749.70 429.43, 748.35 429.47, 745.70 431.73 C 743.04 433.99, 741.34 436.51, 737.35 441.78 C 733.35 447.04, 730.67 451.04, 725.72 458.05 C 720.78 465.07, 717.67 469.89, 712.62 476.85 C 707.56 483.82, 704.57 487.97, 700.45 492.87 C 696.33 497.76, 694.47 499.87, 692.00 501.32 C 689.53 502.76, 689.35 502.73, 688.11 500.10 C 686.88 497.47, 686.12 494.88, 685.84 488.17 C 685.56 481.46, 685.94 476.58, 686.70 466.57 C 687.47 456.56, 688.08 450.01, 689.67 438.11 C 691.25 426.20, 692.39 418.93, 694.64 407.05 C 696.88 395.16, 698.52 388.62, 700.89 378.68 C 703.26 368.73, 704.53 363.82, 706.50 357.33 C 708.48 350.83, 709.97 348.76, 710.79 346.20 C 711.61 343.64, 710.91 343.31, 710.61 344.53 C 710.31 345.75, 710.20 347.41, 709.29 352.32 C 708.37 357.24, 707.81 361.07, 706.04 369.08 C 704.27 377.10, 703.13 382.31, 700.46 392.38 C 697.79 402.45, 696.32 408.45, 692.70 419.42 C 689.08 430.39, 686.91 436.78, 682.35 447.23 C 677.79 457.68, 674.99 463.22, 669.91 471.68 C 664.82 480.13, 661.82 484.07, 656.91 489.52 C 652.00 494.96, 649.39 496.95, 645.36 498.89 C 641.33 500.84, 639.68 500.66, 636.77 499.24 C 633.85 497.82, 632.52 496.08, 630.79 491.79 C 629.05 487.51, 628.57 484.07, 628.09 477.83 C 627.61 471.59, 627.85 467.21, 628.38 460.60 C 628.90 453.98, 629.79 449.84, 630.70 444.76 C 631.61 439.69, 632.79 437.35, 632.93 435.22 C 633.07 433.09, 632.36 432.54, 631.41 434.10 C 630.47 435.66, 630.08 438.04, 628.19 443.04 C 626.30 448.03, 625.08 452.31, 621.98 459.09 C 618.88 465.87, 616.61 470.25, 612.71 476.94 C 608.81 483.64, 606.32 487.46, 602.49 492.58 C 598.67 497.70, 596.48 499.89, 593.58 502.53 C 590.68 505.17, 589.47 505.71, 588.00 505.77 C 586.53 505.82, 586.41 505.41, 586.25 502.79 C 586.09 500.17, 585.75 497.86, 587.21 492.66 C 588.66 487.45, 590.09 483.66, 593.54 476.77 C 596.98 469.89, 599.75 465.43, 604.45 458.25 C 609.15 451.06, 612.53 446.82, 617.05 440.84 C 621.57 434.86, 624.46 432.17, 627.06 428.35 C 629.66 424.53, 630.56 423.00, 630.06 421.72 C 629.57 420.45, 627.82 420.54, 624.60 421.96 C 621.37 423.38, 618.93 425.74, 613.93 428.83 C 608.94 431.93, 605.68 434.20, 599.63 437.44 C 593.57 440.67, 589.88 442.71, 583.65 445.00 C 577.41 447.29, 573.91 448.14, 568.44 448.89 C 562.96 449.64, 560.35 449.41, 556.25 448.74 C 552.16 448.08, 550.67 446.77, 547.97 445.58 C 545.27 444.39, 544.42 443.36, 542.74 442.80 C 541.06 442.24, 540.42 441.91, 539.56 442.77 C 538.71 443.63, 538.52 444.13, 538.47 447.11 C 538.42 450.10, 539.21 452.38, 539.30 457.70 C 539.39 463.03, 539.34 467.08, 538.90 473.75 C 538.46 480.41, 537.93 484.95, 537.10 491.04 C 536.27 497.12, 535.33 500.57, 534.74 504.19 C 534.16 507.81, 534.22 509.26, 534.19 509.16 C 534.15 509.05, 534.20 508.07, 534.56 503.67 C 534.92 499.28, 535.06 495.51, 535.97 487.18 C 536.88 478.84, 537.66 472.98, 539.11 461.98 C 540.55 450.99, 541.52 444.30, 543.20 432.22 C 544.88 420.14, 545.84 413.29, 547.52 401.59 C 549.20 389.89, 549.94 383.76, 551.59 373.70 C 553.23 363.65, 554.15 358.72, 555.76 351.32 C 557.36 343.93, 558.64 340.93, 559.60 336.74 C 560.56 332.54, 560.77 331.10, 560.57 330.33 C 560.36 329.56, 559.64 329.87, 558.57 332.89 C 557.49 335.92, 557.25 338.74, 555.18 345.46 C 553.11 352.19, 551.65 356.82, 548.23 366.50 C 544.82 376.19, 542.55 382.41, 538.09 393.90 C 533.64 405.39, 530.97 412.29, 525.96 423.95 C 520.94 435.62, 518.31 441.83, 513.00 452.21 C 507.70 462.60, 504.68 467.72, 499.43 475.88 C 494.17 484.03, 491.30 487.99, 486.72 492.99 C 482.14 497.99, 479.79 499.57, 476.52 500.88 C 473.25 502.18, 472.33 501.75, 470.37 499.54 C 468.40 497.32, 467.57 494.98, 466.71 489.78 C 465.84 484.59, 465.94 480.42, 466.05 473.56 C 466.16 466.71, 466.72 462.04, 467.24 455.52 C 467.77 448.99, 468.72 445.38, 468.69 440.93 C 468.66 436.48, 468.41 434.46, 467.10 433.26 C 465.78 432.07, 464.42 432.28, 462.10 434.96 C 459.79 437.63, 458.58 440.74, 455.51 446.64 C 452.44 452.54, 450.33 457.10, 446.75 464.44 C 443.17 471.78, 440.94 476.47, 437.62 483.35 C 434.29 490.23, 432.39 494.29, 430.12 498.82 C 427.86 503.36, 426.93 505.04, 426.29 506.04 C 425.66 507.04, 426.42 506.61, 426.96 503.81 C 427.50 501.00, 427.74 498.00, 429.00 492.02 C 430.25 486.04, 431.48 481.51, 433.24 473.92 C 435.01 466.34, 436.34 461.47, 437.82 454.11 C 439.31 446.74, 440.16 442.90, 440.65 437.10 C 441.15 431.30, 441.48 428.72, 440.30 425.10 C 439.13 421.48, 437.84 420.08, 434.76 418.99 C 431.69 417.90, 429.47 418.47, 424.92 419.64 C 420.37 420.82, 417.68 422.36, 412.02 424.86 C 406.36 427.35, 402.92 429.45, 396.62 432.12 C 390.32 434.78, 386.61 436.46, 380.50 438.17 C 374.39 439.89, 371.02 440.46, 366.07 440.71 C 361.12 440.95, 358.80 440.58, 355.75 439.41 C 352.69 438.25, 351.80 436.89, 350.81 434.88 C 349.82 432.88, 349.96 431.60, 350.78 429.39 C 351.61 427.17, 352.69 425.68, 354.95 423.82 C 357.21 421.95, 359.11 420.53, 362.08 420.06 C 365.05 419.58, 366.95 419.56, 369.80 421.44 C 372.65 423.31, 374.35 424.96, 376.33 429.43 C 378.31 433.89, 379.26 437.36, 379.68 443.77 C 380.11 450.17, 379.85 454.38, 378.44 461.46 C 377.03 468.54, 375.68 472.84, 372.65 479.17 C 369.62 485.50, 367.23 488.80, 363.28 493.11 C 359.33 497.43, 356.81 499.16, 352.90 500.73 C 348.99 502.30, 346.98 502.31, 343.74 500.96 C 340.50 499.60, 338.69 498.02, 336.68 493.95 C 334.67 489.87, 333.97 486.44, 333.69 480.59 C 333.41 474.74, 333.80 470.95, 335.26 464.70 C 336.73 458.46, 338.23 454.73, 341.00 449.36 C 343.78 444.00, 345.75 441.29, 349.14 437.89 C 352.52 434.49, 354.88 433.83, 357.94 432.37 C 361.00 430.91, 362.33 431.01, 364.43 430.60 C 366.53 430.18, 367.57 430.75, 368.44 430.30 C 369.31 429.85, 369.68 429.11, 368.79 428.35" style="stroke: black; fill: black;"/><path d="M 795.66,438.18 C 797.75 438.39, 801.09 437.77, 805.76 437.10 C 810.43 436.42, 814.11 435.69, 819.00 434.82 C 823.90 433.95, 828.07 433.64, 830.24 432.76 C 832.41 431.87, 832.22 430.59, 829.88 430.41 C 827.53 430.22, 823.44 431.10, 818.52 431.85 C 813.60 432.59, 809.92 433.29, 805.28 434.12 C 800.65 434.95, 797.27 435.20, 795.34 436.01 C 793.42 436.82, 793.58 437.96, 795.66 438.18" style="stroke: black; fill: black;"/><path d="M 878.75,445.09 C 877.94 444.29, 876.76 443.42, 874.30 443.04 C 871.84 442.65, 870.01 442.33, 866.46 443.18 C 862.90 444.04, 860.55 444.79, 856.52 447.29 C 852.49 449.80, 850.06 451.53, 846.31 455.70 C 842.56 459.87, 840.56 462.83, 837.75 468.15 C 834.94 473.47, 833.42 476.85, 832.28 482.30 C 831.14 487.76, 830.95 491.11, 832.05 495.42 C 833.16 499.73, 834.44 501.82, 837.82 503.87 C 841.20 505.91, 844.01 506.45, 848.95 505.63 C 853.88 504.82, 857.01 503.43, 862.51 499.80 C 868.01 496.16, 871.22 493.06, 876.45 487.45 C 881.69 481.84, 884.64 477.79, 888.68 471.76 C 892.73 465.73, 894.74 461.88, 896.70 457.31 C 898.66 452.74, 898.77 450.33, 898.49 448.90 C 898.22 447.46, 896.51 447.77, 895.32 450.13 C 894.14 452.49, 893.25 455.42, 892.55 460.70 C 891.86 465.98, 891.26 470.40, 891.85 476.53 C 892.44 482.65, 893.07 486.23, 895.50 491.32 C 897.92 496.41, 899.69 499.12, 903.97 502.00 C 908.26 504.88, 911.16 505.56, 916.92 505.72 C 922.67 505.88, 926.36 505.11, 932.74 502.78 C 939.11 500.44, 943.07 497.71, 948.79 494.04 C 954.51 490.38, 957.36 487.83, 961.35 484.46 C 965.34 481.10, 967.50 478.91, 968.75 477.21 C 970.00 475.51, 969.36 474.86, 967.59 475.96 C 965.82 477.06, 963.91 479.48, 959.90 482.70 C 955.89 485.93, 953.11 488.48, 947.53 492.07 C 941.94 495.66, 938.07 498.38, 931.96 500.66 C 925.85 502.93, 922.31 503.56, 916.98 503.43 C 911.65 503.31, 909.14 502.67, 905.30 500.04 C 901.47 497.40, 899.90 495.01, 897.81 490.26 C 895.73 485.51, 895.27 482.10, 894.87 476.28 C 894.48 470.45, 895.19 466.19, 895.83 461.13 C 896.48 456.07, 897.84 453.46, 898.11 450.97 C 898.38 448.47, 897.93 447.59, 897.17 448.64 C 896.41 449.69, 896.38 451.86, 894.31 456.24 C 892.25 460.62, 890.73 464.59, 886.84 470.54 C 882.96 476.49, 880.01 480.52, 874.88 485.98 C 869.76 491.43, 866.49 494.40, 861.21 497.82 C 855.94 501.23, 852.91 502.31, 848.52 503.04 C 844.12 503.77, 842.01 503.14, 839.26 501.48 C 836.50 499.83, 835.61 498.49, 834.73 494.76 C 833.86 491.03, 833.81 487.92, 834.88 482.85 C 835.94 477.77, 837.35 474.42, 840.06 469.38 C 842.76 464.33, 844.76 461.46, 848.40 457.63 C 852.04 453.81, 854.45 452.31, 858.25 450.27 C 862.04 448.23, 864.22 448.02, 867.37 447.43 C 870.52 446.84, 871.82 447.39, 874.01 447.32 C 876.21 447.25, 877.39 447.51, 878.34 447.06 C 879.29 446.62, 879.55 445.90, 878.75 445.09" style="stroke: black; fill: black;"/><path d="M 1066.99,421.20 C 1066.28 422.33, 1065.83 423.48, 1065.25 427.16 C 1064.67 430.83, 1064.68 433.46, 1064.10 439.58 C 1063.52 445.71, 1063.07 449.91, 1062.37 457.78 C 1061.66 465.66, 1061.33 470.73, 1060.58 478.94 C 1059.82 487.15, 1059.19 491.83, 1058.58 498.84 C 1057.97 505.85, 1057.42 509.51, 1057.52 514.01 C 1057.63 518.50, 1057.88 520.34, 1059.12 521.31 C 1060.36 522.28, 1061.77 521.76, 1063.71 518.87 C 1065.65 515.98, 1066.35 513.11, 1068.82 506.87 C 1071.29 500.63, 1072.90 495.76, 1076.07 487.66 C 1079.24 479.56, 1081.14 474.31, 1084.67 466.36 C 1088.20 458.40, 1090.33 454.05, 1093.73 447.90 C 1097.13 441.74, 1099.17 438.90, 1101.65 435.57 C 1104.14 432.24, 1105.11 431.31, 1106.14 431.26 C 1107.17 431.21, 1106.74 432.05, 1106.81 435.32 C 1106.89 438.59, 1106.95 441.55, 1106.52 447.62 C 1106.10 453.70, 1105.55 458.25, 1104.68 465.69 C 1103.81 473.13, 1102.95 477.98, 1102.15 484.81 C 1101.36 491.64, 1100.66 495.26, 1100.69 499.85 C 1100.71 504.43, 1100.80 506.42, 1102.28 507.76 C 1103.77 509.09, 1105.56 508.80, 1108.13 506.51 C 1110.71 504.22, 1112.12 501.31, 1115.16 496.31 C 1118.19 491.31, 1120.01 487.55, 1123.30 481.51 C 1126.60 475.48, 1128.42 471.52, 1131.62 466.12 C 1134.82 460.73, 1136.84 457.84, 1139.32 454.54 C 1141.80 451.24, 1142.88 450.10, 1144.01 449.62 C 1145.14 449.14, 1144.76 449.53, 1144.97 452.13 C 1145.19 454.72, 1145.29 457.39, 1145.06 462.59 C 1144.84 467.78, 1144.21 471.82, 1143.84 478.10 C 1143.46 484.38, 1143.03 488.31, 1143.19 494.00 C 1143.34 499.69, 1143.20 502.73, 1144.60 506.55 C 1146.01 510.37, 1147.31 512.29, 1150.21 513.10 C 1153.12 513.90, 1155.16 513.12, 1159.12 510.58 C 1163.07 508.03, 1165.36 505.60, 1169.99 500.39 C 1174.63 495.17, 1177.33 491.41, 1182.29 484.48 C 1187.25 477.56, 1190.14 472.72, 1194.79 465.76 C 1199.44 458.80, 1202.02 454.73, 1205.54 449.69 C 1209.06 444.64, 1210.86 442.57, 1212.39 440.54 C 1213.92 438.52, 1213.38 438.08, 1213.19 439.58 C 1213.00 441.08, 1212.32 443.29, 1211.45 448.04 C 1210.58 452.79, 1209.85 456.60, 1208.86 463.33 C 1207.88 470.05, 1207.13 474.76, 1206.54 481.68 C 1205.95 488.59, 1205.47 492.64, 1205.92 497.89 C 1206.37 503.15, 1206.79 505.83, 1208.79 507.94 C 1210.79 510.04, 1212.77 510.12, 1215.92 508.44 C 1219.08 506.76, 1220.77 504.61, 1224.57 499.54 C 1228.38 494.47, 1231.05 489.73, 1234.94 483.09 C 1238.84 476.45, 1241.15 472.05, 1244.05 466.34 C 1246.94 460.64, 1248.67 457.08, 1249.41 454.57 C 1250.15 452.05, 1249.21 451.63, 1247.75 453.79 C 1246.30 455.94, 1245.12 459.74, 1242.14 465.35 C 1239.15 470.96, 1236.74 475.30, 1232.81 481.82 C 1228.88 488.35, 1226.16 493.12, 1222.50 497.98 C 1218.84 502.83, 1216.88 504.43, 1214.51 506.11 C 1212.14 507.79, 1211.86 508.04, 1210.66 506.36 C 1209.46 504.67, 1208.86 502.59, 1208.53 497.69 C 1208.19 492.80, 1208.39 488.68, 1209.01 481.89 C 1209.62 475.10, 1210.52 470.42, 1211.60 463.75 C 1212.67 457.07, 1213.71 453.40, 1214.39 448.51 C 1215.07 443.62, 1215.75 441.23, 1214.99 439.28 C 1214.23 437.33, 1212.85 436.95, 1210.59 438.78 C 1208.33 440.60, 1207.18 443.24, 1203.70 448.42 C 1200.22 453.61, 1197.79 457.72, 1193.18 464.69 C 1188.57 471.67, 1185.65 476.48, 1180.66 483.30 C 1175.68 490.13, 1172.86 493.82, 1168.26 498.81 C 1163.65 503.81, 1161.09 505.96, 1157.62 508.30 C 1154.15 510.63, 1152.97 511.04, 1150.91 510.51 C 1148.86 509.97, 1148.33 508.95, 1147.33 505.63 C 1146.33 502.31, 1146.05 499.40, 1145.93 493.93 C 1145.81 488.46, 1146.28 484.53, 1146.73 478.29 C 1147.19 472.05, 1147.92 468.10, 1148.21 462.74 C 1148.50 457.38, 1149.09 454.48, 1148.16 451.48 C 1147.24 448.48, 1145.80 447.48, 1143.59 447.75 C 1141.38 448.01, 1139.92 449.37, 1137.10 452.79 C 1134.27 456.21, 1132.69 459.36, 1129.47 464.86 C 1126.25 470.35, 1124.38 474.26, 1121.02 480.25 C 1117.66 486.24, 1115.70 489.95, 1112.68 494.79 C 1109.66 499.62, 1107.76 502.03, 1105.92 504.42 C 1104.07 506.80, 1103.97 507.62, 1103.45 506.71 C 1102.93 505.81, 1103.12 504.23, 1103.32 499.90 C 1103.53 495.57, 1103.73 491.86, 1104.48 485.08 C 1105.23 478.30, 1106.13 473.44, 1107.08 465.99 C 1108.03 458.54, 1108.72 454.03, 1109.25 447.84 C 1109.78 441.65, 1110.35 438.65, 1109.74 435.03 C 1109.13 431.41, 1108.21 429.92, 1106.21 429.73 C 1104.22 429.54, 1102.61 430.64, 1099.76 434.09 C 1096.92 437.53, 1095.35 440.65, 1091.99 446.95 C 1088.63 453.26, 1086.55 457.62, 1082.98 465.60 C 1079.41 473.59, 1077.42 478.82, 1074.12 486.88 C 1070.83 494.95, 1069.07 499.79, 1066.49 505.91 C 1063.91 512.03, 1062.52 514.55, 1061.22 517.48 C 1059.92 520.41, 1060.21 521.25, 1059.98 520.55 C 1059.75 519.86, 1059.91 518.32, 1060.05 514.01 C 1060.18 509.70, 1060.16 505.98, 1060.65 499.01 C 1061.15 492.03, 1061.74 487.33, 1062.52 479.12 C 1063.30 470.92, 1063.69 465.85, 1064.54 458.00 C 1065.38 450.15, 1065.96 445.96, 1066.73 439.87 C 1067.50 433.79, 1067.98 431.25, 1068.39 427.57 C 1068.80 423.90, 1069.04 422.78, 1068.76 421.51 C 1068.48 420.23, 1067.69 420.07, 1066.99 421.20" style="stroke: black; fill: black;"/><path d="M 1234.94,403.86 C 1234.83 402.79, 1233.96 401.36, 1232.79 400.29 C 1231.61 399.22, 1230.13 398.50, 1229.06 398.50 C 1227.99 398.50, 1227.33 399.20, 1227.42 400.27 C 1227.51 401.35, 1228.34 402.78, 1229.52 403.86 C 1230.69 404.94, 1232.22 405.67, 1233.30 405.67 C 1234.39 405.67, 1235.04 404.94, 1234.94 403.86" style="stroke: black; fill: black;"/><path d="M 1277.34,450.10 C 1278.55 449.31, 1280.07 447.90, 1281.57 445.08 C 1283.06 442.26, 1283.96 440.04, 1284.80 436.01 C 1285.65 431.98, 1286.61 428.73, 1285.79 424.95 C 1284.98 421.17, 1283.62 418.87, 1280.73 417.11 C 1277.83 415.35, 1275.45 415.01, 1271.32 416.14 C 1267.19 417.27, 1264.76 418.78, 1260.08 422.76 C 1255.40 426.75, 1252.22 429.96, 1247.91 436.06 C 1243.60 442.16, 1241.26 446.31, 1238.53 453.26 C 1235.81 460.21, 1234.92 464.41, 1234.29 470.81 C 1233.67 477.22, 1233.74 480.60, 1235.40 485.29 C 1237.06 489.99, 1238.79 492.21, 1242.61 494.29 C 1246.43 496.37, 1249.42 496.65, 1254.50 495.68 C 1259.59 494.72, 1262.49 493.03, 1268.04 489.47 C 1273.58 485.91, 1276.90 483.03, 1282.22 477.89 C 1287.55 472.75, 1290.49 469.02, 1294.66 463.76 C 1298.83 458.50, 1300.81 455.04, 1303.09 451.58 C 1305.37 448.12, 1305.59 446.51, 1306.05 446.46 C 1306.51 446.42, 1305.85 447.25, 1305.39 451.34 C 1304.93 455.43, 1304.49 459.10, 1303.74 466.91 C 1302.98 474.72, 1302.21 480.11, 1301.61 490.40 C 1301.01 500.69, 1300.90 506.95, 1300.74 518.35 C 1300.59 529.76, 1300.91 536.13, 1300.84 547.41 C 1300.77 558.69, 1300.85 564.69, 1300.40 574.74 C 1299.95 584.80, 1299.61 589.73, 1298.57 597.69 C 1297.53 605.65, 1296.94 609.19, 1295.18 614.56 C 1293.43 619.93, 1292.27 621.98, 1289.79 624.54 C 1287.31 627.10, 1285.85 627.44, 1282.76 627.35 C 1279.68 627.26, 1277.79 626.64, 1274.37 624.09 C 1270.96 621.54, 1268.70 619.37, 1265.70 614.60 C 1262.70 609.83, 1260.92 606.54, 1259.35 600.23 C 1257.79 593.93, 1256.91 590.38, 1257.86 583.07 C 1258.81 575.75, 1259.59 571.91, 1264.11 563.65 C 1268.62 555.40, 1272.23 550.64, 1280.44 541.78 C 1288.65 532.92, 1294.00 527.97, 1305.14 519.36 C 1316.28 510.75, 1324.17 505.93, 1336.16 498.72 C 1348.14 491.51, 1355.51 488.21, 1365.06 483.32 C 1374.61 478.43, 1380.24 476.29, 1383.92 474.28 C 1387.59 472.27, 1387.31 471.65, 1383.43 473.27 C 1379.56 474.88, 1374.13 477.45, 1364.56 482.35 C 1354.99 487.25, 1347.60 490.54, 1335.58 497.76 C 1323.56 504.99, 1315.67 509.84, 1304.46 518.48 C 1293.25 527.11, 1287.86 532.04, 1279.53 540.93 C 1271.20 549.82, 1267.51 554.56, 1262.82 562.94 C 1258.13 571.32, 1257.21 575.26, 1256.09 582.82 C 1254.97 590.38, 1255.74 594.11, 1257.22 600.74 C 1258.70 607.36, 1260.40 610.83, 1263.49 615.96 C 1266.58 621.09, 1268.83 623.53, 1272.68 626.37 C 1276.53 629.21, 1278.97 630.17, 1282.74 630.14 C 1286.51 630.10, 1288.66 629.20, 1291.52 626.20 C 1294.38 623.20, 1295.30 620.80, 1297.02 615.14 C 1298.74 609.47, 1299.17 605.95, 1300.12 597.88 C 1301.07 589.81, 1301.36 584.89, 1301.76 574.80 C 1302.16 564.71, 1302.06 558.70, 1302.13 547.42 C 1302.21 536.13, 1301.89 529.76, 1302.12 518.38 C 1302.35 507.00, 1302.52 500.76, 1303.28 490.51 C 1304.03 480.26, 1304.94 474.94, 1305.88 467.14 C 1306.82 459.34, 1307.91 455.82, 1307.97 451.50 C 1308.03 447.18, 1307.59 445.83, 1306.18 445.53 C 1304.77 445.23, 1303.59 446.65, 1300.92 450.00 C 1298.24 453.36, 1296.85 457.05, 1292.81 462.31 C 1288.76 467.58, 1285.90 471.27, 1280.69 476.31 C 1275.49 481.35, 1272.12 484.12, 1266.79 487.51 C 1261.45 490.89, 1258.63 492.33, 1254.03 493.24 C 1249.43 494.16, 1247.08 493.84, 1243.79 492.09 C 1240.51 490.35, 1239.07 488.73, 1237.60 484.52 C 1236.12 480.30, 1235.84 477.12, 1236.42 471.02 C 1237.00 464.92, 1237.81 460.76, 1240.48 454.03 C 1243.14 447.30, 1245.49 443.22, 1249.74 437.37 C 1254.00 431.51, 1257.27 428.42, 1261.74 424.76 C 1266.22 421.09, 1268.70 419.98, 1272.11 419.05 C 1275.53 418.12, 1276.88 418.78, 1278.82 420.10 C 1280.75 421.42, 1281.41 422.65, 1281.77 425.65 C 1282.14 428.65, 1281.45 431.55, 1280.63 435.09 C 1279.81 438.63, 1278.70 440.56, 1277.68 443.34 C 1276.67 446.13, 1275.61 447.68, 1275.54 449.03 C 1275.47 450.38, 1276.14 450.89, 1277.34 450.10" style="stroke: black; fill: black;"/></svg>