<svg xmlns="http://www.w3.org/2000/svg" id="canvas" viewBox="287.550 294.728 1279.181 399.171"><path d="M 411.17,318.41 C 410.18 317.17, 408.25 315.75, 405.14 314.34 C 402.03 312.93, 399.96 312.14, 395.62 311.37 C 391.29 310.60, 388.40 309.68, 383.45 310.51 C 378.50 311.34, 376.38 312.59, 370.89 315.51 C 365.41 318.42, 362.40 319.68, 356.04 325.10 C 349.68 330.51, 345.92 333.88, 339.10 342.58 C 332.29 351.29, 328.37 356.91, 321.98 368.63 C 315.59 380.36, 312.40 387.45, 307.17 401.23 C 301.94 415.00, 299.11 423.31, 295.83 437.52 C 292.55 451.73, 291.36 459.71, 290.78 472.27 C 290.19 484.83, 290.68 490.56, 292.89 500.33 C 295.10 510.09, 297.12 514.38, 301.83 521.10 C 306.54 527.82, 309.93 530.39, 316.45 533.93 C 322.96 537.47, 326.81 538.36, 334.41 538.81 C 342.01 539.25, 346.23 538.76, 354.45 536.14 C 362.66 533.51, 367.10 531.22, 375.50 525.68 C 383.90 520.14, 388.52 516.51, 396.46 508.46 C 404.41 500.42, 408.44 495.55, 415.22 485.45 C 422.00 475.35, 425.18 469.48, 430.37 457.97 C 435.55 446.46, 437.80 440.01, 441.15 427.91 C 444.50 415.81, 445.67 409.19, 447.13 397.48 C 448.58 385.77, 448.61 379.69, 448.42 369.35 C 448.24 359.00, 447.65 353.86, 446.20 345.75 C 444.76 337.64, 443.85 334.43, 441.19 328.81 C 438.53 323.18, 436.82 320.93, 432.89 317.63 C 428.97 314.33, 426.49 313.43, 421.57 312.31 C 416.65 311.20, 413.52 311.48, 408.29 312.07 C 403.06 312.66, 400.32 313.41, 395.42 315.28 C 390.52 317.14, 387.77 318.68, 383.80 321.39 C 379.83 324.10, 376.90 326.99, 375.56 328.85 C 374.23 330.71, 375.15 331.67, 377.14 330.69 C 379.13 329.71, 381.62 326.45, 385.50 323.95 C 389.37 321.44, 391.90 319.95, 396.53 318.16 C 401.16 316.38, 403.75 315.64, 408.65 315.02 C 413.54 314.39, 416.45 314.13, 420.99 315.02 C 425.54 315.92, 427.70 316.55, 431.38 319.48 C 435.05 322.41, 436.75 324.37, 439.38 329.68 C 442.02 335.00, 443.04 338.11, 444.56 346.05 C 446.08 353.99, 446.73 359.12, 446.98 369.38 C 447.24 379.63, 447.24 385.68, 445.84 397.32 C 444.43 408.96, 443.26 415.55, 439.94 427.58 C 436.62 439.61, 434.38 446.03, 429.22 457.45 C 424.06 468.88, 420.88 474.71, 414.12 484.71 C 407.36 494.71, 403.34 499.52, 395.44 507.44 C 387.53 515.37, 382.92 518.93, 374.62 524.33 C 366.31 529.74, 361.93 531.93, 353.91 534.46 C 345.89 536.98, 341.84 537.38, 334.51 536.96 C 327.19 536.55, 323.57 535.73, 317.29 532.38 C 311.00 529.02, 307.71 526.67, 303.09 520.20 C 298.47 513.73, 296.41 509.61, 294.19 500.03 C 291.96 490.46, 291.42 484.78, 291.97 472.33 C 292.52 459.87, 293.67 451.91, 296.93 437.77 C 300.19 423.64, 303.02 415.34, 308.26 401.64 C 313.49 387.93, 316.70 380.87, 323.12 369.26 C 329.53 357.64, 333.50 352.09, 340.33 343.55 C 347.16 335.02, 350.95 331.76, 357.29 326.60 C 363.63 321.43, 366.70 320.31, 372.03 317.73 C 377.35 315.16, 379.34 314.21, 383.90 313.71 C 388.46 313.20, 390.91 314.29, 394.84 315.22 C 398.76 316.14, 400.49 317.26, 403.54 318.33 C 406.59 319.40, 408.56 320.55, 410.08 320.57 C 411.61 320.58, 412.16 319.66, 411.17 318.41" style="stroke: black; fill: black;"/><path d="M 536.42,415.91 C 535.68 414.74, 534.27 413.34, 531.68 412.23 C 529.09 411.12, 527.32 410.48, 523.47 410.37 C 519.62 410.25, 517.17 410.27, 512.41 411.65 C 507.65 413.03, 504.90 413.75, 499.67 417.27 C 494.43 420.80, 491.85 423.20, 486.24 429.27 C 480.64 435.35, 477.41 439.44, 471.64 447.67 C 465.86 455.91, 462.54 460.90, 457.35 470.45 C 452.16 480.01, 449.30 485.86, 445.69 495.45 C 442.07 505.03, 440.91 510.18, 439.28 518.38 C 437.64 526.59, 437.18 530.41, 437.50 536.47 C 437.82 542.53, 438.83 544.93, 440.89 548.68 C 442.95 552.43, 444.55 553.95, 447.80 555.23 C 451.06 556.51, 453.30 556.46, 457.16 555.09 C 461.02 553.73, 463.28 552.42, 467.10 548.40 C 470.93 544.39, 472.59 541.74, 476.29 535.03 C 479.99 528.32, 481.86 524.25, 485.59 514.87 C 489.32 505.50, 491.28 499.80, 494.93 488.16 C 498.59 476.52, 500.33 469.53, 503.85 456.68 C 507.38 443.83, 509.33 436.94, 512.57 423.90 C 515.81 410.85, 517.33 403.94, 520.05 391.45 C 522.78 378.96, 524.05 372.56, 526.18 361.46 C 528.31 350.36, 529.30 344.92, 530.71 335.94 C 532.11 326.96, 532.58 322.99, 533.20 316.56 C 533.82 310.13, 534.18 307.47, 533.81 303.81 C 533.44 300.15, 532.68 299.09, 531.34 298.27 C 530.00 297.45, 528.43 297.30, 527.12 299.71 C 525.81 302.12, 525.72 304.27, 524.80 310.32 C 523.88 316.38, 523.28 320.56, 522.53 329.99 C 521.79 339.42, 521.58 345.21, 521.08 357.46 C 520.58 369.72, 520.34 377.43, 520.04 391.27 C 519.73 405.10, 519.66 412.67, 519.56 426.65 C 519.47 440.63, 519.45 448.13, 519.56 461.17 C 519.67 474.20, 519.66 480.88, 520.13 491.83 C 520.59 502.78, 520.99 507.80, 521.88 515.93 C 522.77 524.06, 523.31 527.22, 524.59 532.48 C 525.87 537.74, 526.57 539.33, 528.28 542.24 C 529.99 545.15, 531.32 546.35, 533.12 547.02 C 534.91 547.70, 536.51 546.18, 537.25 545.62 C 538.00 545.06, 537.46 544.37, 536.84 544.21 C 536.22 544.05, 535.32 545.52, 534.15 544.81 C 532.98 544.10, 532.49 543.24, 530.99 540.66 C 529.50 538.08, 528.18 536.90, 526.68 531.91 C 525.18 526.93, 524.54 523.76, 523.50 515.74 C 522.46 507.71, 522.02 502.68, 521.47 491.77 C 520.92 480.85, 520.90 474.18, 520.76 461.16 C 520.61 448.13, 520.63 440.63, 520.74 426.66 C 520.84 412.69, 520.93 405.12, 521.29 391.30 C 521.66 377.47, 521.93 369.76, 522.58 357.53 C 523.22 345.31, 523.52 339.52, 524.54 330.18 C 525.55 320.84, 526.50 316.66, 527.64 310.82 C 528.79 304.97, 529.72 303.26, 530.27 300.95 C 530.81 298.64, 530.24 298.64, 530.38 299.25 C 530.51 299.87, 530.78 300.60, 530.94 304.03 C 531.10 307.46, 531.54 310.07, 531.19 316.41 C 530.83 322.74, 530.43 326.75, 529.17 335.71 C 527.91 344.68, 526.94 350.12, 524.88 361.21 C 522.82 372.31, 521.56 378.71, 518.87 391.19 C 516.18 403.67, 514.65 410.58, 511.41 423.61 C 508.16 436.64, 506.20 443.52, 502.64 456.35 C 499.07 469.17, 497.30 476.15, 493.57 487.72 C 489.85 499.30, 487.83 504.98, 483.99 514.23 C 480.15 523.47, 478.16 527.50, 474.37 533.93 C 470.58 540.37, 468.72 542.79, 465.05 546.39 C 461.38 549.98, 459.24 550.75, 456.02 551.91 C 452.80 553.06, 451.51 553.08, 448.96 552.17 C 446.40 551.26, 445.10 550.52, 443.23 547.35 C 441.36 544.19, 440.05 542.06, 439.61 536.33 C 439.16 530.61, 439.49 526.78, 441.00 518.71 C 442.51 510.65, 443.62 505.51, 447.17 496.01 C 450.72 486.51, 453.57 480.68, 458.75 471.22 C 463.93 461.75, 467.26 456.78, 473.06 448.68 C 478.86 440.57, 482.14 436.53, 487.75 430.69 C 493.35 424.85, 495.98 422.60, 501.08 419.46 C 506.18 416.32, 508.83 415.93, 513.25 414.99 C 517.67 414.05, 519.81 414.40, 523.17 414.77 C 526.53 415.14, 527.62 416.19, 530.06 416.85 C 532.50 417.50, 534.10 418.25, 535.37 418.06 C 536.65 417.87, 537.16 417.08, 536.42 415.91" style="stroke: black; fill: black;"/><path d="M 592.40,326.81 C 591.70 326.38, 589.93 325.31, 588.68 326.50 C 587.42 327.69, 586.95 328.41, 586.13 332.75 C 585.30 337.09, 585.23 340.20, 584.54 348.21 C 583.85 356.22, 583.58 361.75, 582.68 372.80 C 581.78 383.85, 581.20 390.87, 580.03 403.47 C 578.86 416.06, 577.93 422.85, 576.85 435.79 C 575.77 448.73, 575.45 455.87, 574.63 468.17 C 573.80 480.46, 573.34 486.67, 572.73 497.27 C 572.11 507.86, 571.91 513.04, 571.55 521.13 C 571.19 529.23, 571.07 532.65, 570.95 537.73 C 570.83 542.81, 570.49 543.97, 570.93 546.55 C 571.37 549.13, 572.33 549.84, 573.16 550.62 C 574.00 551.40, 574.73 550.65, 575.11 550.47 C 575.49 550.29, 575.20 549.89, 575.08 549.74 C 574.96 549.58, 574.71 550.41, 574.50 549.69 C 574.29 548.97, 574.28 548.51, 574.03 546.12 C 573.78 543.73, 573.41 542.71, 573.25 537.72 C 573.10 532.74, 573.09 529.27, 573.26 521.19 C 573.44 513.11, 573.61 507.93, 574.14 497.34 C 574.66 486.75, 575.10 480.54, 575.90 468.25 C 576.69 455.96, 577.01 448.83, 578.11 435.90 C 579.22 422.97, 580.16 416.19, 581.42 403.60 C 582.68 391.01, 583.31 383.98, 584.41 372.96 C 585.51 361.93, 585.84 356.37, 586.92 348.47 C 587.99 340.57, 588.98 337.49, 589.77 333.45 C 590.56 329.41, 590.40 329.23, 590.88 328.27 C 591.35 327.31, 591.84 328.94, 592.14 328.65 C 592.45 328.36, 593.09 327.24, 592.40 326.81" style="stroke: black; fill: black;"/><path d="M 628.36,406.36 C 627.52 407.46, 626.94 408.55, 626.06 412.35 C 625.19 416.14, 624.85 418.71, 623.98 425.34 C 623.12 431.96, 622.60 436.72, 621.72 445.48 C 620.84 454.23, 620.41 459.73, 619.60 469.09 C 618.79 478.46, 618.41 484.01, 617.68 492.30 C 616.95 500.58, 616.35 504.51, 615.94 510.51 C 615.53 516.52, 615.48 518.92, 615.62 522.32 C 615.75 525.73, 616.20 526.20, 616.62 527.54 C 617.05 528.88, 617.39 528.76, 617.75 529.01 C 618.10 529.27, 618.24 529.15, 618.41 528.81 C 618.57 528.46, 618.51 528.60, 618.58 527.28 C 618.66 525.97, 618.84 525.56, 618.78 522.23 C 618.71 518.90, 618.08 516.58, 618.25 510.63 C 618.41 504.67, 618.97 500.73, 619.62 492.46 C 620.28 484.19, 620.66 478.61, 621.51 469.26 C 622.37 459.92, 622.87 454.42, 623.90 445.71 C 624.93 437.01, 625.60 432.27, 626.68 425.74 C 627.76 419.20, 628.58 416.80, 629.30 413.03 C 630.02 409.26, 630.47 408.22, 630.28 406.88 C 630.10 405.55, 629.21 405.27, 628.36 406.36" style="stroke: black; fill: black;"/><path d="M 625.54,333.80 C 625.10 332.99, 624.13 332.58, 623.39 332.61 C 622.65 332.65, 622.17 333.40, 621.83 333.99 C 621.50 334.58, 621.51 334.91, 621.72 335.57 C 621.93 336.24, 622.37 336.87, 622.90 337.33 C 623.42 337.78, 623.95 337.74, 624.35 337.86 C 624.74 337.98, 624.61 338.17, 624.87 337.93 C 625.12 337.69, 625.49 337.49, 625.62 336.66 C 625.76 335.84, 625.99 334.61, 625.54 333.80" style="stroke: black; fill: black;"/><path d="M 671.43,415.33 C 670.74 415.57, 670.10 415.44, 669.42 417.12 C 668.75 418.80, 668.41 419.84, 668.05 423.73 C 667.68 427.62, 667.87 430.39, 667.61 436.57 C 667.35 442.74, 667.14 446.53, 666.74 454.61 C 666.35 462.70, 666.17 468.00, 665.63 477.00 C 665.09 486.00, 664.74 490.97, 664.04 499.59 C 663.34 508.22, 662.83 513.09, 662.14 520.13 C 661.44 527.16, 660.66 530.71, 660.57 534.77 C 660.48 538.83, 660.98 540.43, 661.71 540.42 C 662.43 540.41, 663.14 539.13, 664.20 534.71 C 665.27 530.30, 665.46 526.34, 667.05 518.37 C 668.64 510.39, 669.48 504.72, 672.15 494.83 C 674.82 484.94, 676.65 478.81, 680.39 468.91 C 684.13 459.01, 686.38 453.44, 690.85 445.34 C 695.32 437.24, 698.04 433.51, 702.72 428.40 C 707.40 423.29, 710.04 421.53, 714.24 419.79 C 718.45 418.04, 720.20 418.04, 723.76 419.68 C 727.32 421.33, 729.16 423.14, 732.04 428.00 C 734.92 432.87, 736.15 436.50, 738.14 444.00 C 740.13 451.49, 741.01 456.51, 741.99 465.48 C 742.97 474.46, 742.79 479.84, 743.04 488.87 C 743.29 497.89, 743.30 502.64, 743.22 510.61 C 743.14 518.58, 742.63 522.54, 742.64 528.71 C 742.65 534.88, 742.56 537.56, 743.25 541.46 C 743.95 545.37, 744.72 546.59, 746.13 548.23 C 747.53 549.87, 749.35 549.61, 750.30 549.66 C 751.24 549.70, 751.28 549.05, 750.86 548.45 C 750.44 547.86, 749.12 548.19, 748.20 546.69 C 747.27 545.18, 746.87 544.53, 746.22 540.93 C 745.57 537.33, 745.15 534.73, 744.94 528.67 C 744.72 522.61, 745.16 518.59, 745.15 510.62 C 745.14 502.65, 745.13 497.89, 744.88 488.82 C 744.64 479.75, 744.85 474.35, 743.93 465.28 C 743.01 456.20, 742.23 451.15, 740.28 443.44 C 738.32 435.74, 737.25 431.96, 734.15 426.75 C 731.05 421.54, 728.93 419.22, 724.78 417.41 C 720.63 415.60, 718.08 415.77, 713.39 417.72 C 708.69 419.66, 706.11 421.76, 701.31 427.12 C 696.51 432.48, 693.87 436.29, 689.38 444.54 C 684.89 452.78, 682.66 458.37, 678.85 468.32 C 675.03 478.28, 673.15 484.41, 670.32 494.32 C 667.49 504.23, 666.49 509.90, 664.71 517.87 C 662.93 525.85, 662.04 529.71, 661.42 534.19 C 660.80 538.66, 661.24 540.07, 661.61 540.23 C 661.99 540.39, 662.75 538.97, 663.29 534.99 C 663.84 531.00, 663.80 527.37, 664.34 520.32 C 664.87 513.27, 665.31 508.38, 665.96 499.74 C 666.61 491.10, 666.97 486.12, 667.59 477.13 C 668.20 468.13, 668.42 462.82, 669.04 454.76 C 669.66 446.69, 669.96 442.91, 670.67 436.81 C 671.38 430.71, 672.07 428.02, 672.59 424.25 C 673.11 420.48, 673.23 419.63, 673.29 417.97 C 673.35 416.31, 673.26 416.47, 672.88 415.95 C 672.51 415.42, 672.12 415.10, 671.43 415.33" style="stroke: black; fill: black;"/><path d="M 834.33,434.31 C 834.44 432.98, 834.13 431.31, 832.88 428.84 C 831.62 426.38, 830.68 424.15, 828.06 421.98 C 825.44 419.81, 823.48 418.08, 819.78 417.98 C 816.09 417.89, 813.95 418.37, 809.60 421.50 C 805.25 424.62, 802.92 427.13, 798.02 433.61 C 793.13 440.08, 790.06 444.83, 785.14 453.87 C 780.23 462.90, 777.35 469.09, 773.44 478.78 C 769.53 488.47, 767.57 493.95, 765.59 502.30 C 763.60 510.66, 763.15 514.92, 763.53 520.57 C 763.90 526.22, 764.81 528.21, 767.46 530.54 C 770.10 532.88, 772.61 533.05, 776.73 532.24 C 780.86 531.43, 783.47 530.22, 788.07 526.49 C 792.68 522.76, 795.17 520.00, 799.75 513.59 C 804.33 507.19, 806.55 502.66, 810.96 494.45 C 815.37 486.25, 817.75 480.91, 821.82 472.56 C 825.88 464.21, 828.16 458.91, 831.27 452.71 C 834.38 446.52, 835.73 443.57, 837.35 441.61 C 838.98 439.65, 838.78 439.60, 839.39 442.90 C 840.00 446.19, 840.32 449.70, 840.43 458.08 C 840.53 466.46, 840.20 472.86, 839.92 484.81 C 839.63 496.75, 839.37 504.19, 838.99 517.78 C 838.62 531.38, 838.28 539.02, 838.05 552.78 C 837.81 566.54, 837.94 573.94, 837.83 586.58 C 837.73 599.21, 837.73 605.24, 837.53 615.97 C 837.34 626.70, 837.56 631.55, 836.87 640.23 C 836.18 648.91, 835.80 652.82, 834.07 659.37 C 832.35 665.91, 831.12 668.32, 828.26 672.95 C 825.40 677.57, 823.67 679.63, 819.77 682.50 C 815.87 685.37, 813.67 686.26, 808.75 687.30 C 803.84 688.35, 800.88 688.49, 795.19 687.72 C 789.51 686.96, 786.00 685.79, 780.32 683.48 C 774.65 681.17, 771.96 679.72, 766.82 676.17 C 761.68 672.61, 758.91 670.46, 754.63 665.70 C 750.36 660.94, 748.28 657.56, 745.45 652.37 C 742.63 647.18, 742.02 644.13, 740.51 639.76 C 739.01 635.39, 738.82 632.28, 737.92 630.53 C 737.02 628.77, 736.00 628.97, 736.01 630.99 C 736.01 633.00, 736.53 636.07, 737.95 640.60 C 739.38 645.13, 740.17 648.29, 743.15 653.64 C 746.12 658.98, 748.37 662.43, 752.83 667.33 C 757.29 672.23, 760.14 674.45, 765.44 678.15 C 770.74 681.86, 773.48 683.39, 779.35 685.84 C 785.23 688.28, 788.84 689.54, 794.83 690.36 C 800.83 691.18, 804.03 691.09, 809.32 689.92 C 814.61 688.76, 817.13 687.70, 821.30 684.54 C 825.47 681.37, 827.26 679.05, 830.17 674.11 C 833.09 669.16, 834.24 666.58, 835.88 659.83 C 837.53 653.07, 837.83 649.11, 838.42 640.34 C 839.02 631.57, 838.74 626.74, 838.87 615.99 C 838.99 605.24, 838.98 599.22, 839.05 586.58 C 839.13 573.95, 839.00 566.56, 839.25 552.80 C 839.50 539.05, 839.84 531.41, 840.31 517.83 C 840.77 504.24, 841.14 496.81, 841.57 484.86 C 842.00 472.90, 842.46 466.58, 842.47 458.07 C 842.48 449.55, 842.97 445.90, 841.62 442.26 C 840.27 438.63, 838.18 437.98, 835.72 439.87 C 833.25 441.76, 832.42 445.36, 829.29 451.73 C 826.17 458.10, 824.09 463.37, 820.08 471.73 C 816.08 480.08, 813.69 485.42, 809.25 493.53 C 804.82 501.63, 802.50 506.10, 797.92 512.26 C 793.34 518.43, 790.72 520.92, 786.36 524.35 C 782.00 527.77, 779.55 528.55, 776.11 529.40 C 772.67 530.25, 771.26 530.38, 769.17 528.58 C 767.08 526.78, 766.03 525.60, 765.67 520.42 C 765.31 515.25, 765.49 510.92, 767.37 502.72 C 769.24 494.52, 771.15 489.02, 775.03 479.43 C 778.91 469.83, 781.82 463.65, 786.77 454.76 C 791.73 445.87, 794.90 441.15, 799.79 434.98 C 804.69 428.80, 807.31 426.48, 811.25 423.89 C 815.19 421.31, 816.84 421.64, 819.47 422.03 C 822.11 422.42, 822.65 423.91, 824.42 425.85 C 826.19 427.80, 826.74 429.85, 828.31 431.78 C 829.89 433.71, 831.09 435.00, 832.30 435.51 C 833.50 436.01, 834.21 435.64, 834.33 434.31" style="stroke: black; fill: black;"/><path d="M 942.62,397.78 C 941.72 396.66, 940.34 395.35, 937.20 394.24 C 934.06 393.12, 931.45 392.32, 926.91 392.22 C 922.37 392.12, 919.57 392.33, 914.49 393.74 C 909.41 395.15, 906.42 396.18, 901.50 399.27 C 896.58 402.36, 894.24 404.61, 889.89 409.18 C 885.55 413.74, 883.11 416.56, 879.77 422.08 C 876.43 427.60, 874.73 430.82, 873.18 436.78 C 871.64 442.74, 871.37 445.83, 872.06 451.90 C 872.75 457.97, 873.98 461.17, 876.62 467.12 C 879.27 473.07, 881.39 476.01, 885.27 481.65 C 889.15 487.29, 891.65 489.93, 896.02 495.32 C 900.39 500.70, 903.07 503.58, 907.11 508.56 C 911.15 513.55, 913.34 516.03, 916.23 520.26 C 919.13 524.49, 920.37 526.27, 921.59 529.71 C 922.80 533.15, 923.00 534.54, 922.32 537.45 C 921.63 540.37, 920.82 541.59, 918.18 544.30 C 915.54 547.01, 913.60 548.57, 909.11 550.99 C 904.62 553.40, 901.30 554.68, 895.75 556.38 C 890.20 558.08, 886.71 558.78, 881.37 559.50 C 876.03 560.22, 873.04 560.04, 869.05 559.98 C 865.07 559.92, 863.60 559.47, 861.43 559.18 C 859.26 558.90, 858.95 558.49, 858.19 558.58 C 857.44 558.67, 857.15 558.90, 857.65 559.63 C 858.15 560.37, 858.43 561.49, 860.70 562.26 C 862.97 563.04, 864.78 563.45, 869.00 563.50 C 873.23 563.56, 876.28 563.37, 881.81 562.52 C 887.33 561.67, 890.86 561.00, 896.63 559.26 C 902.39 557.52, 905.81 556.34, 910.62 553.82 C 915.42 551.31, 917.63 549.81, 920.64 546.68 C 923.65 543.56, 924.87 541.80, 925.64 538.20 C 926.42 534.59, 925.94 532.56, 924.51 528.66 C 923.07 524.76, 921.57 523.02, 918.47 518.69 C 915.37 514.36, 913.13 511.98, 909.00 507.01 C 904.87 502.04, 902.18 499.19, 897.82 493.85 C 893.46 488.52, 890.99 485.87, 887.19 480.33 C 883.38 474.79, 881.34 471.90, 878.79 466.16 C 876.24 460.42, 875.10 457.38, 874.45 451.63 C 873.81 445.88, 874.07 443.05, 875.57 437.40 C 877.06 431.75, 878.68 428.68, 881.93 423.40 C 885.17 418.11, 887.57 415.33, 891.78 410.99 C 895.99 406.65, 898.28 404.50, 902.99 401.70 C 907.70 398.89, 910.57 398.08, 915.32 396.98 C 920.06 395.88, 922.61 395.87, 926.73 396.18 C 930.85 396.48, 932.92 397.75, 935.92 398.49 C 938.92 399.22, 940.39 399.98, 941.73 399.84 C 943.07 399.70, 943.53 398.90, 942.62 397.78" style="stroke: black; fill: black;"/><path d="M 1033.75,433.91 C 1034.13 432.63, 1034.14 430.79, 1033.38 428.20 C 1032.62 425.61, 1031.83 423.96, 1029.96 420.96 C 1028.09 417.96, 1026.84 415.98, 1024.03 413.21 C 1021.22 410.45, 1019.60 408.76, 1015.90 407.15 C 1012.20 405.53, 1010.18 404.93, 1005.53 405.14 C 1000.88 405.35, 997.92 405.38, 992.65 408.20 C 987.37 411.02, 984.49 413.49, 979.15 419.25 C 973.81 425.01, 970.89 428.49, 965.93 436.99 C 960.97 445.48, 958.10 451.22, 954.36 461.71 C 950.61 472.20, 949.05 478.79, 947.20 489.42 C 945.34 500.05, 945.04 505.86, 945.09 514.87 C 945.13 523.89, 945.51 528.19, 947.41 534.49 C 949.32 540.80, 951.06 543.29, 954.59 546.39 C 958.12 549.48, 960.64 550.06, 965.06 549.98 C 969.49 549.91, 971.99 549.05, 976.72 546.03 C 981.45 543.00, 983.92 540.84, 988.70 534.85 C 993.49 528.86, 995.90 525.10, 1000.66 516.09 C 1005.42 507.08, 1007.80 501.47, 1012.49 489.80 C 1017.18 478.14, 1019.49 471.13, 1024.11 457.77 C 1028.72 444.41, 1031.14 436.62, 1035.55 423.00 C 1039.96 409.38, 1042.44 401.88, 1046.16 389.66 C 1049.88 377.44, 1051.54 371.64, 1054.16 361.92 C 1056.79 352.20, 1057.73 348.03, 1059.30 341.06 C 1060.88 334.09, 1061.57 331.17, 1062.05 327.05 C 1062.52 322.94, 1062.38 321.62, 1061.68 320.49 C 1060.98 319.36, 1059.66 319.27, 1058.55 321.40 C 1057.43 323.54, 1057.17 325.44, 1056.10 331.17 C 1055.02 336.89, 1054.57 341.04, 1053.18 350.01 C 1051.78 358.98, 1050.85 364.57, 1049.14 376.02 C 1047.43 387.47, 1046.39 394.37, 1044.63 407.26 C 1042.86 420.15, 1041.83 427.46, 1040.31 440.46 C 1038.79 453.47, 1038.30 459.98, 1037.02 472.29 C 1035.75 484.61, 1034.95 491.12, 1033.94 502.04 C 1032.92 512.96, 1032.39 518.29, 1031.93 526.89 C 1031.48 535.49, 1031.53 539.23, 1031.67 545.02 C 1031.81 550.81, 1031.89 552.75, 1032.62 555.83 C 1033.36 558.91, 1034.43 559.41, 1035.36 560.41 C 1036.29 561.42, 1036.83 560.89, 1037.27 560.86 C 1037.71 560.82, 1037.65 560.54, 1037.58 560.24 C 1037.51 559.95, 1037.31 560.43, 1036.93 559.40 C 1036.56 558.38, 1036.34 558.03, 1035.71 555.13 C 1035.09 552.23, 1034.24 550.54, 1033.81 544.91 C 1033.39 539.28, 1033.28 535.51, 1033.57 526.96 C 1033.87 518.41, 1034.36 513.07, 1035.30 502.16 C 1036.24 491.25, 1037.02 484.73, 1038.26 472.42 C 1039.51 460.11, 1040.00 453.60, 1041.54 440.61 C 1043.08 427.61, 1044.12 420.31, 1045.95 407.44 C 1047.78 394.57, 1048.83 387.68, 1050.70 376.26 C 1052.56 364.85, 1053.62 359.27, 1055.29 350.38 C 1056.96 341.48, 1057.81 337.37, 1059.04 331.76 C 1060.27 326.15, 1061.16 324.54, 1061.43 322.33 C 1061.71 320.11, 1060.81 319.80, 1060.41 320.68 C 1060.01 321.56, 1060.02 322.72, 1059.45 326.72 C 1058.88 330.72, 1058.88 333.73, 1057.55 340.70 C 1056.22 347.66, 1055.33 351.84, 1052.82 361.56 C 1050.31 371.29, 1048.67 377.09, 1045.00 389.31 C 1041.32 401.52, 1038.85 409.03, 1034.44 422.64 C 1030.04 436.26, 1027.61 444.04, 1022.96 457.37 C 1018.31 470.70, 1015.97 477.70, 1011.21 489.28 C 1006.46 500.87, 1004.01 506.45, 999.18 515.30 C 994.34 524.14, 991.82 527.79, 987.05 533.49 C 982.28 539.20, 979.74 541.08, 975.33 543.84 C 970.92 546.60, 968.83 547.15, 964.99 547.30 C 961.15 547.45, 959.29 547.27, 956.14 544.59 C 953.00 541.92, 951.16 539.86, 949.29 533.92 C 947.41 527.97, 946.86 523.70, 946.75 514.86 C 946.64 506.01, 946.90 500.21, 948.72 489.69 C 950.54 479.16, 952.10 472.61, 955.84 462.25 C 959.59 451.89, 962.48 446.19, 967.46 437.89 C 972.43 429.58, 975.42 426.18, 980.71 420.72 C 985.99 415.27, 988.90 413.05, 993.88 410.59 C 998.86 408.13, 1001.53 408.39, 1005.60 408.41 C 1009.67 408.43, 1011.20 409.08, 1014.22 410.67 C 1017.24 412.27, 1018.44 413.79, 1020.70 416.37 C 1022.97 418.96, 1023.97 420.86, 1025.56 423.61 C 1027.15 426.36, 1027.48 427.91, 1028.67 430.11 C 1029.85 432.31, 1030.47 433.86, 1031.49 434.62 C 1032.50 435.38, 1033.37 435.20, 1033.75 433.91" style="stroke: black; fill: black;"/><path d="M 1136.46,413.48 C 1136.67 412.20, 1136.47 410.40, 1135.35 408.24 C 1134.22 406.07, 1133.14 404.42, 1130.84 402.63 C 1128.54 400.85, 1126.98 399.69, 1123.84 399.32 C 1120.70 398.94, 1118.90 398.80, 1115.13 400.78 C 1111.36 402.76, 1109.05 404.33, 1105.01 409.22 C 1100.96 414.10, 1099.07 417.27, 1094.92 425.19 C 1090.78 433.11, 1088.19 438.36, 1084.28 448.83 C 1080.37 459.29, 1078.23 465.99, 1075.38 477.50 C 1072.53 489.01, 1071.33 495.94, 1070.04 506.38 C 1068.75 516.83, 1068.55 521.91, 1068.94 529.72 C 1069.33 537.53, 1070.03 540.72, 1071.98 545.43 C 1073.93 550.13, 1075.50 551.79, 1078.69 553.25 C 1081.88 554.71, 1084.13 554.65, 1087.91 552.73 C 1091.69 550.80, 1093.60 548.73, 1097.57 543.61 C 1101.55 538.48, 1103.67 535.19, 1107.80 527.11 C 1111.93 519.02, 1114.20 513.61, 1118.21 503.19 C 1122.21 492.77, 1124.54 485.86, 1127.82 474.99 C 1131.10 464.11, 1132.44 457.23, 1134.61 448.83 C 1136.78 440.42, 1137.84 436.43, 1138.65 432.95 C 1139.46 429.46, 1138.65 429.30, 1138.67 431.40 C 1138.68 433.50, 1138.70 436.49, 1138.72 443.45 C 1138.74 450.41, 1138.84 456.13, 1138.77 466.19 C 1138.70 476.25, 1138.51 483.21, 1138.37 493.75 C 1138.23 504.29, 1137.90 509.90, 1138.06 518.88 C 1138.22 527.87, 1138.58 532.46, 1139.15 538.70 C 1139.71 544.94, 1140.13 546.75, 1140.87 550.09 C 1141.62 553.42, 1142.23 554.37, 1142.86 555.37 C 1143.50 556.36, 1143.97 556.21, 1144.05 555.06 C 1144.13 553.91, 1143.84 552.93, 1143.28 549.62 C 1142.72 546.30, 1141.95 544.64, 1141.26 538.48 C 1140.57 532.33, 1140.06 527.79, 1139.84 518.85 C 1139.61 509.91, 1139.93 504.31, 1140.13 493.78 C 1140.34 483.26, 1140.69 476.28, 1140.87 466.21 C 1141.06 456.14, 1141.12 450.47, 1141.05 443.43 C 1140.97 436.40, 1141.37 433.26, 1140.48 431.02 C 1139.59 428.78, 1138.14 428.79, 1136.61 432.26 C 1135.07 435.73, 1134.87 439.92, 1132.80 448.37 C 1130.73 456.83, 1129.51 463.68, 1126.28 474.53 C 1123.05 485.37, 1120.71 492.26, 1116.66 502.59 C 1112.62 512.92, 1110.26 518.30, 1106.04 526.19 C 1101.83 534.08, 1099.50 537.25, 1095.60 542.04 C 1091.70 546.83, 1089.70 548.41, 1086.54 550.15 C 1083.39 551.89, 1082.33 551.86, 1079.82 550.74 C 1077.32 549.63, 1075.84 548.79, 1074.02 544.56 C 1072.19 540.34, 1071.20 537.22, 1070.70 529.62 C 1070.21 522.02, 1070.33 516.92, 1071.56 506.56 C 1072.78 496.21, 1073.98 489.29, 1076.83 477.86 C 1079.68 466.43, 1081.84 459.75, 1085.81 449.40 C 1089.78 439.06, 1092.45 433.83, 1096.69 426.14 C 1100.94 418.45, 1103.02 415.38, 1107.03 410.97 C 1111.04 406.56, 1113.54 405.48, 1116.73 404.09 C 1119.93 402.70, 1120.90 403.42, 1122.99 404.01 C 1125.08 404.59, 1125.60 405.56, 1127.18 407.01 C 1128.77 408.47, 1129.49 409.78, 1130.91 411.30 C 1132.34 412.82, 1133.19 414.17, 1134.30 414.61 C 1135.40 415.05, 1136.24 414.75, 1136.46 413.48" style="stroke: black; fill: black;"/><path d="M 1236.60,438.05 C 1236.67 436.71, 1236.26 434.81, 1234.87 432.67 C 1233.49 430.54, 1232.33 428.86, 1229.67 427.37 C 1227.01 425.88, 1225.02 424.81, 1221.59 425.21 C 1218.16 425.61, 1216.51 426.28, 1212.53 429.37 C 1208.55 432.46, 1205.94 434.48, 1201.68 440.65 C 1197.42 446.81, 1195.24 451.33, 1191.23 460.21 C 1187.21 469.08, 1184.75 474.87, 1181.62 485.00 C 1178.49 495.14, 1177.18 501.53, 1175.57 510.90 C 1173.97 520.27, 1173.59 524.97, 1173.61 531.86 C 1173.63 538.75, 1174.00 541.61, 1175.66 545.37 C 1177.32 549.14, 1179.07 550.27, 1181.91 550.68 C 1184.75 551.08, 1186.63 550.42, 1189.85 547.40 C 1193.06 544.38, 1194.71 541.53, 1197.99 535.57 C 1201.26 529.60, 1202.85 525.72, 1206.21 517.57 C 1209.58 509.42, 1211.29 504.26, 1214.82 494.82 C 1218.35 485.38, 1220.19 479.65, 1223.85 470.37 C 1227.51 461.10, 1229.74 456.02, 1233.12 448.45 C 1236.50 440.89, 1238.35 437.08, 1240.77 432.55 C 1243.18 428.02, 1243.98 426.42, 1245.18 425.79 C 1246.38 425.17, 1246.25 425.68, 1246.79 429.43 C 1247.33 433.18, 1247.68 436.64, 1247.88 444.53 C 1248.08 452.42, 1248.02 458.13, 1247.80 468.88 C 1247.58 479.63, 1247.37 485.93, 1246.78 498.30 C 1246.19 510.67, 1245.83 517.78, 1244.85 530.72 C 1243.87 543.67, 1243.32 550.69, 1241.89 563.01 C 1240.46 575.34, 1239.67 581.27, 1237.70 592.34 C 1235.73 603.41, 1234.50 608.91, 1232.05 618.36 C 1229.61 627.81, 1228.23 632.11, 1225.46 639.59 C 1222.68 647.07, 1221.12 650.41, 1218.17 655.76 C 1215.22 661.11, 1213.63 663.10, 1210.70 666.35 C 1207.77 669.60, 1206.35 670.64, 1203.50 672.01 C 1200.65 673.38, 1199.37 673.54, 1196.45 673.22 C 1193.53 672.89, 1192.08 671.89, 1188.92 670.37 C 1185.75 668.84, 1184.17 667.95, 1180.63 665.59 C 1177.08 663.23, 1174.87 661.59, 1171.18 658.57 C 1167.50 655.55, 1165.52 654.15, 1162.21 650.50 C 1158.91 646.85, 1157.07 645.25, 1154.64 640.34 C 1152.21 635.42, 1151.26 631.74, 1150.06 625.93 C 1148.87 620.11, 1148.90 616.51, 1148.67 611.27 C 1148.43 606.04, 1149.30 602.08, 1148.90 599.76 C 1148.49 597.44, 1147.25 597.34, 1146.65 599.66 C 1146.06 601.99, 1145.78 606.00, 1145.91 611.37 C 1146.05 616.73, 1146.06 620.45, 1147.30 626.49 C 1148.55 632.53, 1149.60 636.37, 1152.13 641.57 C 1154.66 646.77, 1156.57 648.59, 1159.95 652.50 C 1163.32 656.42, 1165.28 657.93, 1169.00 661.16 C 1172.71 664.39, 1174.89 666.12, 1178.53 668.67 C 1182.18 671.21, 1183.71 672.23, 1187.23 673.90 C 1190.75 675.57, 1192.58 676.81, 1196.14 677.02 C 1199.69 677.23, 1201.68 676.72, 1205.00 674.93 C 1208.31 673.15, 1209.71 671.73, 1212.71 668.09 C 1215.72 664.46, 1217.16 662.34, 1220.03 656.75 C 1222.90 651.17, 1224.39 647.79, 1227.08 640.18 C 1229.77 632.57, 1231.10 628.25, 1233.48 618.72 C 1235.86 609.20, 1237.07 603.68, 1239.00 592.57 C 1240.93 581.45, 1241.71 575.51, 1243.14 563.16 C 1244.56 550.81, 1245.11 543.78, 1246.12 530.82 C 1247.13 517.86, 1247.50 510.75, 1248.19 498.37 C 1248.88 485.99, 1249.18 479.71, 1249.58 468.93 C 1249.97 458.15, 1250.20 452.50, 1250.16 444.49 C 1250.12 436.48, 1250.49 432.94, 1249.39 428.88 C 1248.28 424.82, 1246.77 423.69, 1244.64 424.20 C 1242.51 424.71, 1241.38 426.73, 1238.73 431.43 C 1236.08 436.13, 1234.69 440.03, 1231.39 447.69 C 1228.10 455.36, 1225.91 460.45, 1222.26 469.75 C 1218.62 479.05, 1216.77 484.79, 1213.17 494.19 C 1209.58 503.60, 1207.80 508.74, 1204.30 516.76 C 1200.81 524.77, 1199.02 528.59, 1195.70 534.27 C 1192.38 539.96, 1190.37 542.42, 1187.68 545.18 C 1184.98 547.95, 1184.16 548.24, 1182.22 548.08 C 1180.28 547.92, 1179.31 547.63, 1177.99 544.38 C 1176.67 541.13, 1175.77 538.47, 1175.63 531.84 C 1175.49 525.20, 1175.76 520.46, 1177.29 511.19 C 1178.81 501.93, 1180.12 495.55, 1183.25 485.51 C 1186.39 475.47, 1188.89 469.70, 1192.97 461.01 C 1197.04 452.31, 1199.34 447.84, 1203.63 442.03 C 1207.91 436.22, 1210.76 434.42, 1214.41 431.95 C 1218.06 429.47, 1219.41 429.64, 1221.89 429.64 C 1224.36 429.65, 1225.02 430.69, 1226.80 431.97 C 1228.57 433.24, 1229.20 434.53, 1230.74 436.01 C 1232.28 437.49, 1233.32 438.96, 1234.49 439.37 C 1235.66 439.78, 1236.52 439.39, 1236.60 438.05" style="stroke: black; fill: black;"/><path d="M 1314.73,322.25 C 1313.57 324.67, 1312.62 328.15, 1311.05 334.98 C 1309.48 341.82, 1308.65 346.68, 1306.89 356.44 C 1305.13 366.21, 1303.91 372.44, 1302.25 383.80 C 1300.60 395.16, 1300.10 401.55, 1298.61 413.27 C 1297.12 424.98, 1296.15 430.94, 1294.79 442.37 C 1293.44 453.80, 1293.05 459.85, 1291.82 470.41 C 1290.58 480.97, 1289.88 486.11, 1288.63 495.18 C 1287.38 504.25, 1286.63 508.45, 1285.56 515.76 C 1284.49 523.07, 1284.02 526.77, 1283.27 531.71 C 1282.51 536.64, 1281.91 538.85, 1281.78 540.44 C 1281.65 542.02, 1282.46 541.81, 1282.62 539.63 C 1282.77 537.46, 1282.19 535.31, 1282.57 529.55 C 1282.95 523.80, 1283.24 519.23, 1284.51 510.85 C 1285.79 502.47, 1286.36 496.71, 1288.94 487.65 C 1291.53 478.59, 1293.17 473.74, 1297.44 465.55 C 1301.71 457.36, 1304.54 453.34, 1310.30 446.72 C 1316.06 440.09, 1319.80 436.91, 1326.26 432.42 C 1332.72 427.93, 1336.34 426.26, 1342.61 424.27 C 1348.88 422.27, 1352.28 422.01, 1357.59 422.45 C 1362.91 422.90, 1365.44 423.69, 1369.19 426.48 C 1372.93 429.27, 1374.33 431.36, 1376.32 436.39 C 1378.32 441.42, 1378.98 444.80, 1379.17 451.63 C 1379.37 458.45, 1379.01 462.68, 1377.29 470.53 C 1375.57 478.37, 1373.94 482.87, 1370.58 490.86 C 1367.22 498.85, 1365.04 503.09, 1360.49 510.48 C 1355.93 517.88, 1353.03 521.57, 1347.79 527.84 C 1342.54 534.11, 1339.68 537.09, 1334.26 541.85 C 1328.83 546.60, 1325.79 548.61, 1320.66 551.63 C 1315.53 554.66, 1312.85 556.16, 1308.60 556.98 C 1304.34 557.79, 1302.41 557.01, 1299.40 555.72 C 1296.38 554.44, 1295.46 552.77, 1293.52 550.56 C 1291.59 548.35, 1290.88 545.64, 1289.71 544.67 C 1288.54 543.70, 1287.49 544.05, 1287.67 545.72 C 1287.85 547.38, 1288.50 550.38, 1290.60 553.00 C 1292.71 555.62, 1294.48 557.50, 1298.19 558.83 C 1301.90 560.17, 1304.42 560.71, 1309.15 559.67 C 1313.89 558.62, 1316.57 556.88, 1321.85 553.61 C 1327.14 550.35, 1330.13 548.27, 1335.60 543.35 C 1341.07 538.44, 1343.93 535.41, 1349.22 529.03 C 1354.50 522.64, 1357.42 518.92, 1362.03 511.44 C 1366.65 503.95, 1368.86 499.69, 1372.31 491.60 C 1375.77 483.50, 1377.47 478.98, 1379.31 470.98 C 1381.14 462.97, 1381.60 458.67, 1381.47 451.57 C 1381.33 444.47, 1380.78 440.90, 1378.62 435.48 C 1376.47 430.06, 1374.84 427.54, 1370.68 424.47 C 1366.51 421.40, 1363.52 420.57, 1357.78 420.14 C 1352.04 419.70, 1348.49 420.14, 1341.97 422.30 C 1335.46 424.45, 1331.79 426.25, 1325.20 430.91 C 1318.61 435.57, 1314.86 438.83, 1309.01 445.60 C 1303.15 452.37, 1300.31 456.46, 1295.93 464.76 C 1291.55 473.06, 1289.88 477.98, 1287.12 487.12 C 1284.37 496.25, 1283.64 502.01, 1282.14 510.45 C 1280.63 518.90, 1280.06 523.43, 1279.61 529.34 C 1279.16 535.26, 1279.08 537.65, 1279.88 540.02 C 1280.68 542.39, 1282.43 542.79, 1283.62 541.21 C 1284.81 539.62, 1285.07 537.14, 1285.84 532.10 C 1286.61 527.06, 1286.58 523.35, 1287.46 516.01 C 1288.33 508.67, 1289.04 504.47, 1290.20 495.39 C 1291.36 486.30, 1292.05 481.15, 1293.23 470.57 C 1294.42 460.00, 1294.79 453.95, 1296.14 442.53 C 1297.49 431.10, 1298.45 425.14, 1299.98 413.44 C 1301.51 401.74, 1302.06 395.36, 1303.79 384.03 C 1305.53 372.70, 1306.81 366.49, 1308.65 356.77 C 1310.49 347.05, 1311.36 342.22, 1313.00 335.44 C 1314.64 328.67, 1316.51 325.53, 1316.86 322.89 C 1317.21 320.25, 1315.89 319.83, 1314.73 322.25" style="stroke: black; fill: black;"/><path d="M 1409.31,423.15 C 1408.43 425.06, 1407.65 427.76, 1407.05 433.18 C 1406.46 438.61, 1406.22 442.30, 1406.33 450.27 C 1406.45 458.24, 1406.68 463.82, 1407.64 473.03 C 1408.60 482.25, 1409.72 487.59, 1411.15 496.35 C 1412.58 505.10, 1413.23 509.74, 1414.78 516.80 C 1416.33 523.86, 1417.05 527.13, 1418.89 531.65 C 1420.73 536.16, 1421.72 537.92, 1423.99 539.37 C 1426.26 540.81, 1427.85 540.49, 1430.23 538.87 C 1432.60 537.26, 1433.85 535.46, 1435.86 531.29 C 1437.86 527.13, 1438.78 524.61, 1440.26 518.03 C 1441.73 511.45, 1442.31 506.99, 1443.23 498.39 C 1444.14 489.79, 1444.64 484.44, 1444.83 475.04 C 1445.01 465.64, 1444.82 459.96, 1444.15 451.40 C 1443.49 442.85, 1443.30 438.48, 1441.51 432.26 C 1439.72 426.05, 1438.17 423.53, 1435.20 420.32 C 1432.23 417.10, 1429.99 416.61, 1426.66 416.18 C 1423.33 415.76, 1421.30 417.04, 1418.55 418.19 C 1415.79 419.34, 1414.28 420.25, 1412.89 421.93 C 1411.51 423.62, 1411.61 425.39, 1411.62 426.63 C 1411.63 427.86, 1412.54 427.89, 1412.95 428.13 C 1413.36 428.37, 1413.42 427.98, 1413.68 427.83 C 1413.93 427.68, 1413.69 427.90, 1414.22 427.40 C 1414.75 426.90, 1415.06 426.32, 1416.33 425.32 C 1417.59 424.32, 1418.52 423.52, 1420.55 422.39 C 1422.57 421.27, 1423.89 419.75, 1426.44 419.71 C 1428.98 419.66, 1430.68 419.52, 1433.27 422.15 C 1435.87 424.79, 1437.63 427.00, 1439.42 432.88 C 1441.22 438.76, 1441.54 443.13, 1442.24 451.56 C 1442.94 459.98, 1443.14 465.68, 1442.92 475.00 C 1442.69 484.32, 1442.17 489.67, 1441.11 498.15 C 1440.05 506.63, 1439.29 511.06, 1437.62 517.39 C 1435.95 523.72, 1434.66 525.99, 1432.77 529.78 C 1430.87 533.56, 1429.60 534.82, 1428.15 536.31 C 1426.70 537.80, 1426.87 538.36, 1425.50 537.23 C 1424.14 536.10, 1423.05 534.83, 1421.31 530.65 C 1419.57 526.47, 1418.47 523.25, 1416.82 516.33 C 1415.16 509.41, 1414.47 504.74, 1413.04 496.04 C 1411.60 487.34, 1410.53 481.99, 1409.65 472.83 C 1408.76 463.68, 1408.62 458.13, 1408.61 450.25 C 1408.59 442.38, 1408.99 438.79, 1409.57 433.45 C 1410.14 428.12, 1411.53 425.66, 1411.48 423.60 C 1411.43 421.54, 1410.20 421.23, 1409.31 423.15" style="stroke: black; fill: black;"/><path d="M 1488.00,336.13 C 1487.69 335.92, 1487.52 335.46, 1486.74 335.80 C 1485.96 336.14, 1484.85 335.95, 1484.11 337.83 C 1483.38 339.71, 1483.61 340.95, 1483.07 345.17 C 1482.53 349.40, 1482.19 351.92, 1481.41 358.97 C 1480.63 366.02, 1480.18 370.65, 1479.16 380.41 C 1478.14 390.18, 1477.40 396.39, 1476.31 407.80 C 1475.22 419.21, 1474.67 426.02, 1473.71 437.48 C 1472.74 448.95, 1472.20 454.81, 1471.46 465.12 C 1470.73 475.43, 1470.27 480.49, 1470.04 489.03 C 1469.80 497.57, 1469.96 501.43, 1470.29 507.82 C 1470.62 514.21, 1470.77 516.88, 1471.69 520.99 C 1472.61 525.10, 1473.31 526.75, 1474.89 528.35 C 1476.47 529.95, 1478.60 529.12, 1479.60 528.99 C 1480.60 528.85, 1480.43 528.15, 1479.88 527.69 C 1479.32 527.23, 1477.90 528.14, 1476.82 526.67 C 1475.73 525.20, 1475.34 524.16, 1474.45 520.36 C 1473.56 516.56, 1472.92 513.93, 1472.37 507.67 C 1471.83 501.41, 1471.60 497.56, 1471.71 489.07 C 1471.83 480.58, 1472.26 475.52, 1472.95 465.23 C 1473.63 454.93, 1474.17 449.06, 1475.15 437.61 C 1476.14 426.15, 1476.70 419.35, 1477.87 407.96 C 1479.05 396.56, 1479.82 390.35, 1481.05 380.63 C 1482.27 370.91, 1482.78 366.27, 1484.01 359.34 C 1485.24 352.41, 1486.16 349.96, 1487.20 345.97 C 1488.24 341.98, 1488.85 341.11, 1489.21 339.39 C 1489.58 337.68, 1489.21 337.90, 1489.03 337.39 C 1488.84 336.89, 1488.49 337.11, 1488.29 336.85 C 1488.08 336.60, 1488.31 336.34, 1488.00 336.13" style="stroke: black; fill: black;"/><path d="M 1526.76,418.01 C 1525.18 417.86, 1523.11 417.92, 1519.45 419.39 C 1515.78 420.85, 1513.37 422.01, 1508.43 425.33 C 1503.49 428.65, 1499.85 431.08, 1494.74 435.99 C 1489.62 440.91, 1487.27 444.26, 1482.85 449.91 C 1478.44 455.57, 1475.87 458.63, 1472.66 464.27 C 1469.45 469.92, 1468.15 472.85, 1466.81 478.14 C 1465.47 483.43, 1465.23 486.05, 1465.95 490.70 C 1466.67 495.36, 1467.70 497.48, 1470.42 501.40 C 1473.13 505.32, 1475.00 507.33, 1479.50 510.32 C 1484.00 513.32, 1487.18 514.41, 1492.92 516.39 C 1498.65 518.37, 1501.86 519.03, 1508.18 520.22 C 1514.49 521.41, 1518.10 521.95, 1524.49 522.33 C 1530.87 522.72, 1534.56 522.46, 1540.11 522.14 C 1545.66 521.82, 1548.25 521.39, 1552.25 520.74 C 1556.24 520.08, 1557.86 519.69, 1560.09 518.87 C 1562.31 518.04, 1562.67 517.27, 1563.37 516.61 C 1564.06 515.95, 1563.55 515.85, 1563.54 515.59 C 1563.54 515.33, 1563.53 515.45, 1563.35 515.30 C 1563.18 515.16, 1563.56 514.89, 1562.68 514.85 C 1561.80 514.80, 1561.17 514.56, 1558.95 515.07 C 1556.73 515.58, 1555.41 516.52, 1551.60 517.37 C 1547.79 518.23, 1545.30 518.84, 1539.91 519.32 C 1534.51 519.80, 1530.88 520.09, 1524.63 519.76 C 1518.38 519.44, 1514.82 518.89, 1508.66 517.70 C 1502.50 516.51, 1499.33 515.76, 1493.82 513.81 C 1488.31 511.85, 1485.32 510.72, 1481.12 507.90 C 1476.93 505.08, 1475.32 503.24, 1472.84 499.71 C 1470.36 496.19, 1469.43 494.45, 1468.73 490.26 C 1468.02 486.07, 1468.12 483.72, 1469.32 478.76 C 1470.52 473.80, 1471.66 470.92, 1474.74 465.45 C 1477.82 459.97, 1480.37 456.89, 1484.73 451.38 C 1489.09 445.88, 1491.47 442.61, 1496.54 437.91 C 1501.62 433.21, 1505.25 430.96, 1510.10 427.90 C 1514.95 424.83, 1517.35 424.14, 1520.80 422.58 C 1524.25 421.03, 1526.16 421.04, 1527.35 420.12 C 1528.54 419.21, 1528.35 418.15, 1526.76 418.01" style="stroke: black; fill: black;"/></svg>