<?xml version="1.0" encoding="UTF-8" standalone="no"?>
<!DOCTYPE svg PUBLIC "-//W3C//DTD SVG 1.1//EN" "http://www.w3.org/Graphics/SVG/1.1/DTD/svg11.dtd">
<svg xmlns="http://www.w3.org/2000/svg" version="1.1" viewBox="0.00 0.00 2540.00 628.00">
<g stroke-width="2.00" fill="none" stroke-linecap="butt">
<path stroke="#1f1c17" vector-effect="non-scaling-stroke" d="
  M 540.60 81.20
  Q 542.89 78.77 545.81 77.43
  C 546.74 77.01 547.48 75.96 548.24 75.68
  Q 550.00 75.05 551.61 74.05
  A 2.17 2.15 -64.5 0 1 552.50 73.73
  Q 554.61 73.46 556.24 72.25
  Q 559.00 70.21 559.09 70.15
  Q 560.78 69.15 562.42 68.06
  C 563.18 67.55 563.96 67.51 564.67 67.10
  Q 569.91 64.08 575.37 61.49
  Q 575.67 61.35 576.00 61.39
  Q 576.45 61.45 576.63 61.08
  Q 576.83 60.66 577.26 60.48
  Q 580.58 59.11 583.65 57.25
  C 585.02 56.41 586.44 56.18 587.88 55.31
  Q 589.59 54.27 590.90 53.68
  C 592.57 52.92 593.71 51.81 595.53 51.31
  Q 597.45 50.79 599.23 49.91
  Q 599.54 49.76 599.64 49.44
  Q 599.71 49.19 599.99 49.11
  C 601.49 48.67 602.53 48.23 604.38 47.70
  C 606.71 47.05 607.66 45.10 610.35 45.08
  Q 610.84 45.08 611.14 44.69
  Q 612.86 42.50 615.44 42.51
  Q 617.12 42.52 619.37 44.27
  Q 621.16 45.67 623.07 46.92
  Q 623.14 46.97 623.13 47.06
  Q 623.12 47.18 623.12 47.32
  Q 623.11 47.68 623.46 47.76
  Q 625.03 48.12 626.64 48.24
  C 628.82 48.41 630.39 47.55 632.41 46.83
  Q 633.69 46.37 634.76 45.42
  C 637.98 42.57 642.04 40.17 644.66 37.40
  Q 647.38 34.52 649.44 31.13
  Q 650.86 28.81 651.03 26.61
  Q 651.26 23.56 649.91 21.75
  Q 641.69 10.78 628.56 15.96
  Q 621.63 18.69 614.75 21.54
  Q 613.82 21.92 611.92 23.63
  A 1.86 1.83 17.9 0 1 611.06 24.06
  Q 606.81 24.86 604.00 26.13
  C 603.44 26.38 603.20 27.02 602.40 27.31
  C 596.51 29.39 590.58 32.95 585.65 35.26
  Q 578.23 38.74 571.29 43.13
  C 569.09 44.52 566.40 45.84 564.07 47.40
  C 556.72 52.35 548.74 55.40 540.92 59.40
  C 533.36 63.26 525.55 66.17 518.24 70.61
  C 516.30 71.79 514.00 72.62 511.97 73.81
  Q 507.75 76.28 507.70 76.31
  C 504.68 77.91 501.37 80.14 498.02 80.85
  Q 496.68 81.13 495.42 81.90
  C 492.63 83.62 489.51 84.60 486.47 85.80
  C 484.69 86.50 483.21 87.81 481.22 88.50
  Q 478.10 89.61 477.16 90.09
  C 472.15 92.67 466.80 94.53 461.93 97.11
  C 456.92 99.76 451.77 101.77 446.76 104.54
  Q 444.00 106.07 441.11 107.37
  C 439.13 108.27 437.30 109.96 434.90 110.68
  Q 434.47 110.81 434.22 111.20
  Q 434.05 111.45 433.74 111.56
  Q 431.29 112.40 428.84 113.26
  Q 427.28 113.81 424.50 115.60
  Q 422.47 116.91 420.11 117.56
  C 418.35 118.05 416.98 119.47 415.49 119.77
  Q 411.50 120.58 408.25 122.97
  C 406.78 124.04 402.49 124.67 400.21 125.83
  Q 393.03 129.47 385.66 132.72
  C 382.41 134.15 379.04 136.13 375.58 137.65
  C 374.22 138.25 373.11 139.50 371.50 140.02
  Q 368.05 141.13 364.81 142.74
  C 363.52 143.39 362.09 142.95 360.64 143.45
  C 357.40 144.57 353.09 144.13 349.68 144.12
  Q 349.15 144.12 348.81 144.53
  L 345.50 148.50
  Q 345.15 148.91 345.16 149.46
  C 345.22 151.64 343.51 152.18 341.97 153.07
  C 340.70 153.81 339.83 155.06 338.52 155.91
  C 335.77 157.70 333.58 159.20 330.22 160.15
  C 326.63 161.17 323.60 162.87 319.93 164.01
  C 314.42 165.71 310.27 169.83 305.38 172.59
  C 299.85 175.71 295.28 179.39 289.38 181.86
  C 288.37 182.28 286.88 182.40 285.76 183.07
  C 283.44 184.44 282.27 184.97 280.21 185.77
  C 277.80 186.71 275.71 188.38 273.14 189.26
  Q 270.63 190.11 269.03 190.95
  C 266.59 192.22 263.81 192.94 261.56 194.50
  C 258.31 196.74 254.23 199.03 250.48 200.62
  Q 245.98 202.52 241.84 205.12
  C 240.49 205.97 238.78 206.30 237.34 207.28
  Q 235.07 208.82 234.26 209.27
  C 232.55 210.22 231.42 211.41 229.59 212.10
  C 223.71 214.31 218.13 217.60 212.87 220.17
  C 205.45 223.79 198.30 227.58 190.55 230.56
  Q 185.87 232.36 181.48 234.82
  C 178.39 236.55 175.14 237.83 172.16 239.71
  C 170.55 240.72 168.72 241.09 166.99 241.96
  Q 155.60 247.64 144.75 254.29
  C 142.97 255.39 140.97 256.24 139.08 257.31
  C 135.03 259.58 130.82 261.30 126.65 263.22
  C 124.10 264.39 119.39 266.12 115.97 268.11
  C 113.63 269.47 111.21 269.77 108.71 271.33
  Q 103.52 274.56 94.52 278.16
  Q 92.25 279.07 84.64 283.65
  C 82.78 284.77 79.33 285.80 76.84 287.65
  C 74.25 289.57 71.45 290.70 68.58 292.07
  C 67.80 292.45 67.41 293.29 66.51 293.59
  Q 58.36 296.35 50.32 299.42
  C 46.75 300.78 41.98 301.92 37.92 303.78
  C 35.39 304.94 34.21 304.18 32.31 302.60
  A 0.77 0.77 0.0 0 0 31.20 302.72
  Q 30.26 303.95 28.90 304.31"
/>
<path stroke="#1f1c17" vector-effect="non-scaling-stroke" d="
  M 635.91 461.79
  Q 635.62 469.84 640.02 469.25"
/>
<path stroke="#1f1c17" vector-effect="non-scaling-stroke" d="
  M 824.77 430.10
  Q 825.34 427.68 825.79 425.32
  Q 826.13 423.53 825.97 421.67
  C 825.78 419.56 826.08 416.23 823.70 415.32
  Q 823.20 415.14 822.77 415.43
  C 821.28 416.45 817.89 417.52 817.19 419.55"
/>
<path stroke="#1f1c17" vector-effect="non-scaling-stroke" d="
  M 1923.24 436.32
  Q 1922.86 436.57 1922.59 436.50
  Q 1922.42 436.45 1922.48 436.28
  Q 1922.57 436.07 1922.76 436.13
  Q 1923.08 436.23 1923.19 435.92
  L 1924.74 431.55
  Q 1924.80 431.37 1924.99 431.37
  L 1925.29 431.37
  Q 1925.51 431.37 1925.61 431.17
  Q 1929.73 422.50 1933.87 413.82
  C 1935.53 410.32 1936.80 406.41 1938.38 402.83
  Q 1939.15 401.06 1937.43 401.92
  Q 1935.81 402.73 1934.33 403.73
  Q 1932.98 404.64 1931.89 406.25
  Q 1927.35 412.95 1922.65 419.55
  Q 1921.68 420.91 1920.23 423.54
  Q 1919.12 425.53 1917.74 427.34
  Q 1917.48 427.68 1917.40 428.11
  Q 1917.11 429.69 1916.12 430.95
  Q 1915.83 431.32 1915.85 431.78
  Q 1915.96 433.96 1915.38 432.66"
/>
<path stroke="#1f1c17" vector-effect="non-scaling-stroke" d="
  M 1959.8375 426.3703
  A 1.13 0.75 82.5 0 0 1960.4336 425.1521
  A 1.13 0.75 82.5 0 0 1959.5425 424.1297
  A 1.13 0.75 82.5 0 0 1958.9464 425.3479
  A 1.13 0.75 82.5 0 0 1959.8375 426.3703"
/>
<path stroke="#1f1c17" vector-effect="non-scaling-stroke" d="
  M 1885.6878 502.2757
  A 0.88 0.88 0.0 0 0 1885.2176 501.1234
  L 1885.0886 501.0692
  A 0.88 0.88 0.0 0 0 1883.9363 501.5394
  L 1880.0922 510.6843
  A 0.88 0.88 0.0 0 0 1880.5624 511.8366
  L 1880.6914 511.8908
  A 0.88 0.88 0.0 0 0 1881.8437 511.4206
  L 1885.6878 502.2757"
/>
<path stroke="#1f1c17" vector-effect="non-scaling-stroke" d="
  M 1012.8619 401.4060
  A 3.23 0.42 44.8 0 0 1010.8659 398.8320
  A 3.23 0.42 44.8 0 0 1008.2781 396.8540
  A 3.23 0.42 44.8 0 0 1010.2741 399.4280
  A 3.23 0.42 44.8 0 0 1012.8619 401.4060"
/>
</g>
<path fill="#181510" d="
  M 540.60 81.20
  Q 542.89 78.77 545.81 77.43
  C 546.74 77.01 547.48 75.96 548.24 75.68
  Q 550.00 75.05 551.61 74.05
  A 2.17 2.15 -64.5 0 1 552.50 73.73
  Q 554.61 73.46 556.24 72.25
  Q 559.00 70.21 559.09 70.15
  Q 560.78 69.15 562.42 68.06
  C 563.18 67.55 563.96 67.51 564.67 67.10
  Q 569.91 64.08 575.37 61.49
  Q 575.67 61.35 576.00 61.39
  Q 576.45 61.45 576.63 61.08
  Q 576.83 60.66 577.26 60.48
  Q 580.58 59.11 583.65 57.25
  C 585.02 56.41 586.44 56.18 587.88 55.31
  Q 589.59 54.27 590.90 53.68
  C 592.57 52.92 593.71 51.81 595.53 51.31
  Q 597.45 50.79 599.23 49.91
  Q 599.54 49.76 599.64 49.44
  Q 599.71 49.19 599.99 49.11
  C 601.49 48.67 602.53 48.23 604.38 47.70
  C 606.71 47.05 607.66 45.10 610.35 45.08
  Q 610.84 45.08 611.14 44.69
  Q 612.86 42.50 615.44 42.51
  Q 617.12 42.52 619.37 44.27
  Q 621.16 45.67 623.07 46.92
  Q 623.14 46.97 623.13 47.06
  Q 623.12 47.18 623.12 47.32
  Q 623.11 47.68 623.46 47.76
  Q 625.03 48.12 626.64 48.24
  C 628.82 48.41 630.39 47.55 632.41 46.83
  Q 633.69 46.37 634.76 45.42
  C 637.98 42.57 642.04 40.17 644.66 37.40
  Q 647.38 34.52 649.44 31.13
  Q 650.86 28.81 651.03 26.61
  Q 651.26 23.56 649.91 21.75
  Q 641.69 10.78 628.56 15.96
  Q 621.63 18.69 614.75 21.54
  Q 613.82 21.92 611.92 23.63
  A 1.86 1.83 17.9 0 1 611.06 24.06
  Q 606.81 24.86 604.00 26.13
  C 603.44 26.38 603.20 27.02 602.40 27.31
  C 596.51 29.39 590.58 32.95 585.65 35.26
  Q 578.23 38.74 571.29 43.13
  C 569.09 44.52 566.40 45.84 564.07 47.40
  C 556.72 52.35 548.74 55.40 540.92 59.40
  C 533.36 63.26 525.55 66.17 518.24 70.61
  C 516.30 71.79 514.00 72.62 511.97 73.81
  Q 507.75 76.28 507.70 76.31
  C 504.68 77.91 501.37 80.14 498.02 80.85
  Q 496.68 81.13 495.42 81.90
  C 492.63 83.62 489.51 84.60 486.47 85.80
  C 484.69 86.50 483.21 87.81 481.22 88.50
  Q 478.10 89.61 477.16 90.09
  C 472.15 92.67 466.80 94.53 461.93 97.11
  C 456.92 99.76 451.77 101.77 446.76 104.54
  Q 444.00 106.07 441.11 107.37
  C 439.13 108.27 437.30 109.96 434.90 110.68
  Q 434.47 110.81 434.22 111.20
  Q 434.05 111.45 433.74 111.56
  Q 431.29 112.40 428.84 113.26
  Q 427.28 113.81 424.50 115.60
  Q 422.47 116.91 420.11 117.56
  C 418.35 118.05 416.98 119.47 415.49 119.77
  Q 411.50 120.58 408.25 122.97
  C 406.78 124.04 402.49 124.67 400.21 125.83
  Q 393.03 129.47 385.66 132.72
  C 382.41 134.15 379.04 136.13 375.58 137.65
  C 374.22 138.25 373.11 139.50 371.50 140.02
  Q 368.05 141.13 364.81 142.74
  C 363.52 143.39 362.09 142.95 360.64 143.45
  C 357.40 144.57 353.09 144.13 349.68 144.12
  Q 349.15 144.12 348.81 144.53
  L 345.50 148.50
  Q 345.15 148.91 345.16 149.46
  C 345.22 151.64 343.51 152.18 341.97 153.07
  C 340.70 153.81 339.83 155.06 338.52 155.91
  C 335.77 157.70 333.58 159.20 330.22 160.15
  C 326.63 161.17 323.60 162.87 319.93 164.01
  C 314.42 165.71 310.27 169.83 305.38 172.59
  C 299.85 175.71 295.28 179.39 289.38 181.86
  C 288.37 182.28 286.88 182.40 285.76 183.07
  C 283.44 184.44 282.27 184.97 280.21 185.77
  C 277.80 186.71 275.71 188.38 273.14 189.26
  Q 270.63 190.11 269.03 190.95
  C 266.59 192.22 263.81 192.94 261.56 194.50
  C 258.31 196.74 254.23 199.03 250.48 200.62
  Q 245.98 202.52 241.84 205.12
  C 240.49 205.97 238.78 206.30 237.34 207.28
  Q 235.07 208.82 234.26 209.27
  C 232.55 210.22 231.42 211.41 229.59 212.10
  C 223.71 214.31 218.13 217.60 212.87 220.17
  C 205.45 223.79 198.30 227.58 190.55 230.56
  Q 185.87 232.36 181.48 234.82
  C 178.39 236.55 175.14 237.83 172.16 239.71
  C 170.55 240.72 168.72 241.09 166.99 241.96
  Q 155.60 247.64 144.75 254.29
  C 142.97 255.39 140.97 256.24 139.08 257.31
  C 135.03 259.58 130.82 261.30 126.65 263.22
  C 124.10 264.39 119.39 266.12 115.97 268.11
  C 113.63 269.47 111.21 269.77 108.71 271.33
  Q 103.52 274.56 94.52 278.16
  Q 92.25 279.07 84.64 283.65
  C 82.78 284.77 79.33 285.80 76.84 287.65
  C 74.25 289.57 71.45 290.70 68.58 292.07
  C 67.80 292.45 67.41 293.29 66.51 293.59
  Q 58.36 296.35 50.32 299.42
  C 46.75 300.78 41.98 301.92 37.92 303.78
  C 35.39 304.94 34.21 304.18 32.31 302.60
  A 0.77 0.77 0.0 0 0 31.20 302.72
  Q 30.26 303.95 28.90 304.31
  Q 31.78 301.15 36.03 300.08
  Q 42.62 298.41 48.79 295.56
  C 51.56 294.28 54.34 293.86 57.05 292.64
  C 61.83 290.48 65.59 288.82 71.28 286.05
  C 78.92 282.34 86.31 279.48 94.63 274.83
  Q 96.47 273.81 100.57 272.04
  C 104.25 270.45 107.24 267.92 110.88 266.57
  C 113.11 265.74 115.00 265.10 117.12 263.76
  C 120.77 261.46 125.04 260.04 128.51 258.19
  C 132.65 255.97 137.25 254.20 141.07 252.08
  C 145.61 249.56 149.81 246.99 154.54 244.75
  Q 156.52 243.81 158.83 242.40
  C 162.86 239.93 167.29 238.68 171.34 236.27
  C 174.96 234.12 179.04 233.02 182.80 230.99
  Q 186.29 229.12 190.00 227.66
  C 193.34 226.35 196.28 224.64 199.75 223.41
  Q 203.69 222.01 207.30 219.90
  C 210.48 218.05 213.77 217.27 216.82 215.43
  Q 220.72 213.09 224.85 211.15
  C 231.23 208.15 236.44 204.15 243.13 201.02
  C 246.50 199.45 249.26 197.46 252.81 196.10
  C 257.37 194.34 261.25 191.46 265.44 189.56
  C 269.43 187.75 272.94 185.93 277.30 184.17
  C 281.00 182.69 284.42 180.65 288.07 179.21
  C 293.28 177.14 297.55 174.24 302.27 171.23
  C 305.16 169.38 308.39 168.58 311.22 166.70
  C 315.40 163.93 320.61 162.12 324.30 160.09
  C 331.44 156.15 337.55 153.49 340.90 149.52
  C 342.75 147.33 343.29 144.36 344.64 141.67
  A 0.79 0.74 87.9 0 1 344.89 141.38
  L 349.14 138.43
  A 1.07 1.07 0.0 0 1 350.52 138.57
  C 354.75 142.99 359.45 142.05 365.06 139.87
  C 368.66 138.48 371.96 137.21 375.49 135.13
  Q 379.60 132.71 383.98 130.84
  C 387.74 129.23 391.22 126.85 395.15 125.28
  Q 398.18 124.07 400.91 122.57
  C 404.52 120.59 408.64 119.34 411.96 117.66
  C 414.29 116.48 416.25 115.41 418.87 114.46
  C 423.04 112.95 426.48 110.39 430.52 108.82
  C 435.12 107.04 439.27 104.50 443.88 102.58
  C 447.31 101.16 450.28 99.29 453.79 97.98
  C 458.61 96.19 462.65 93.62 467.63 91.63
  C 471.02 90.28 474.28 88.09 477.35 86.74
  Q 481.43 84.94 485.40 82.92
  C 487.67 81.77 490.52 81.11 492.43 80.19
  Q 497.12 77.95 500.22 76.67
  Q 504.68 74.83 507.58 73.32
  C 510.81 71.63 514.34 70.27 517.34 68.62
  C 530.95 61.14 539.30 57.06 548.88 52.06
  Q 550.39 51.28 556.09 48.61
  C 559.35 47.09 562.45 44.76 565.37 43.28
  Q 572.09 39.87 578.58 36.03
  C 581.74 34.15 586.56 32.18 590.31 29.77
  C 594.36 27.16 598.65 25.61 602.88 23.54
  C 605.73 22.15 608.94 21.68 611.63 20.04
  C 618.09 16.07 632.99 8.59 640.39 12.67
  C 646.53 16.06 653.20 18.69 652.38 27.12
  C 651.52 35.95 640.47 44.42 633.20 48.46
  C 628.91 50.84 619.92 52.45 618.34 45.50
  A 1.85 1.85 0.0 0 0 616.02 44.13
  C 613.64 44.83 611.44 45.47 609.21 46.60
  C 600.69 50.93 591.80 54.46 583.33 59.18
  C 573.73 64.54 563.85 69.44 554.14 74.58
  C 550.13 76.70 545.06 78.75 540.60 81.20
  Z"
/>
<path fill="#26221e" d="
  M 540.60 81.20
  C 537.45 82.92 533.94 84.11 530.90 85.87
  Q 526.55 88.38 522.06 90.64
  Q 510.63 96.39 499.32 102.34
  C 476.72 114.22 452.92 123.58 429.96 134.95
  Q 428.70 135.58 422.93 138.22
  C 419.77 139.67 416.79 141.38 413.62 142.71
  Q 409.27 144.53 405.09 146.69
  C 401.96 148.31 397.71 149.58 395.32 151.07
  C 391.97 153.18 387.28 154.98 384.82 156.16
  C 379.32 158.80 373.34 161.02 368.41 164.16
  C 363.58 167.24 358.27 170.23 357.24 176.29
  Q 355.33 187.53 354.55 190.75
  Q 351.88 201.74 351.71 204.75
  C 350.73 222.02 348.99 239.20 347.68 256.44
  C 347.24 262.21 345.94 268.18 345.79 273.55
  C 345.59 280.77 345.96 288.46 345.71 295.15
  Q 345.00 314.33 344.04 333.50
  C 343.69 340.39 342.10 347.92 341.57 353.86
  Q 340.07 370.92 338.93 388.00
  C 338.43 395.52 336.39 404.15 335.48 412.27
  C 334.63 419.81 333.34 427.66 332.75 434.75
  C 331.88 445.32 330.71 453.16 330.05 462.39
  C 329.60 468.74 328.48 475.42 328.10 480.75
  Q 326.62 501.15 325.23 507.00
  Q 323.25 515.37 322.85 519.25
  Q 320.10 546.57 320.38 555.74
  Q 320.72 567.13 321.50 578.50
  C 321.93 584.76 322.44 593.02 313.86 593.88
  C 306.52 594.62 302.44 589.22 298.69 584.01
  C 295.98 580.24 296.35 575.90 296.29 571.25
  C 296.10 558.19 296.08 546.38 298.95 534.80
  C 301.81 523.27 301.90 513.26 303.96 502.40
  Q 307.22 485.24 308.38 465.49
  Q 308.79 458.63 310.69 449.13
  C 312.80 438.62 313.28 428.53 314.06 417.90
  C 314.56 411.02 316.69 402.99 316.91 396.37
  Q 317.27 385.99 318.42 375.67
  C 319.42 366.71 319.73 358.90 320.16 350.46
  Q 320.40 345.71 321.37 340.60
  C 323.00 331.96 323.32 324.72 324.27 316.73
  C 326.44 298.32 325.41 279.30 326.15 260.75
  C 326.38 254.93 327.72 249.02 328.63 243.26
  C 330.55 231.26 331.03 218.89 332.00 206.78
  Q 332.35 202.32 332.91 199.77
  C 333.88 195.35 336.36 191.73 335.16 186.96
  A 2.34 2.34 0.0 0 0 332.66 185.21
  Q 322.93 186.21 314.30 192.06
  Q 311.14 194.21 303.63 197.44
  Q 294.08 201.56 285.00 206.62
  C 282.81 207.83 280.44 208.44 278.31 209.67
  C 273.12 212.66 267.57 214.95 262.21 217.63
  Q 253.99 221.74 245.66 225.63
  C 241.49 227.57 237.89 229.82 234.04 232.18
  C 230.42 234.40 226.35 235.93 222.55 238.01
  Q 220.06 239.37 215.58 241.43
  C 212.39 242.90 209.38 244.93 206.38 246.33
  C 195.55 251.37 185.19 257.42 174.28 262.39
  C 171.24 263.77 168.23 265.66 165.45 266.95
  C 158.68 270.10 151.94 273.27 145.32 276.74
  C 142.50 278.22 139.34 279.24 136.73 280.67
  C 120.54 289.53 103.83 297.22 87.31 305.41
  Q 82.31 307.89 78.17 310.84
  C 73.65 314.07 68.89 318.53 63.97 320.72
  C 58.96 322.94 53.44 322.96 48.27 323.86
  C 45.66 324.31 42.26 327.18 39.24 325.03
  C 33.94 321.27 21.60 311.29 28.90 304.31
  Q 30.26 303.95 31.20 302.72
  A 0.77 0.77 0.0 0 1 32.31 302.60
  C 34.21 304.18 35.39 304.94 37.92 303.78
  C 41.98 301.92 46.75 300.78 50.32 299.42
  Q 58.36 296.35 66.51 293.59
  C 67.41 293.29 67.80 292.45 68.58 292.07
  C 71.45 290.70 74.25 289.57 76.84 287.65
  C 79.33 285.80 82.78 284.77 84.64 283.65
  Q 92.25 279.07 94.52 278.16
  Q 103.52 274.56 108.71 271.33
  C 111.21 269.77 113.63 269.47 115.97 268.11
  C 119.39 266.12 124.10 264.39 126.65 263.22
  C 130.82 261.30 135.03 259.58 139.08 257.31
  C 140.97 256.24 142.97 255.39 144.75 254.29
  Q 155.60 247.64 166.99 241.96
  C 168.72 241.09 170.55 240.72 172.16 239.71
  C 175.14 237.83 178.39 236.55 181.48 234.82
  Q 185.87 232.36 190.55 230.56
  C 198.30 227.58 205.45 223.79 212.87 220.17
  C 218.13 217.60 223.71 214.31 229.59 212.10
  C 231.42 211.41 232.55 210.22 234.26 209.27
  Q 235.07 208.82 237.34 207.28
  C 238.78 206.30 240.49 205.97 241.84 205.12
  Q 245.98 202.52 250.48 200.62
  C 254.23 199.03 258.31 196.74 261.56 194.50
  C 263.81 192.94 266.59 192.22 269.03 190.95
  Q 270.63 190.11 273.14 189.26
  C 275.71 188.38 277.80 186.71 280.21 185.77
  C 282.27 184.97 283.44 184.44 285.76 183.07
  C 286.88 182.40 288.37 182.28 289.38 181.86
  C 295.28 179.39 299.85 175.71 305.38 172.59
  C 310.27 169.83 314.42 165.71 319.93 164.01
  C 323.60 162.87 326.63 161.17 330.22 160.15
  C 333.58 159.20 335.77 157.70 338.52 155.91
  C 339.83 155.06 340.70 153.81 341.97 153.07
  C 343.51 152.18 345.22 151.64 345.16 149.46
  Q 345.15 148.91 345.50 148.50
  L 348.81 144.53
  Q 349.15 144.12 349.68 144.12
  C 353.09 144.13 357.40 144.57 360.64 143.45
  C 362.09 142.95 363.52 143.39 364.81 142.74
  Q 368.05 141.13 371.50 140.02
  C 373.11 139.50 374.22 138.25 375.58 137.65
  C 379.04 136.13 382.41 134.15 385.66 132.72
  Q 393.03 129.47 400.21 125.83
  C 402.49 124.67 406.78 124.04 408.25 122.97
  Q 411.50 120.58 415.49 119.77
  C 416.98 119.47 418.35 118.05 420.11 117.56
  Q 422.47 116.91 424.50 115.60
  Q 427.28 113.81 428.84 113.26
  Q 431.29 112.40 433.74 111.56
  Q 434.05 111.45 434.22 111.20
  Q 434.47 110.81 434.90 110.68
  C 437.30 109.96 439.13 108.27 441.11 107.37
  Q 444.00 106.07 446.76 104.54
  C 451.77 101.77 456.92 99.76 461.93 97.11
  C 466.80 94.53 472.15 92.67 477.16 90.09
  Q 478.10 89.61 481.22 88.50
  C 483.21 87.81 484.69 86.50 486.47 85.80
  C 489.51 84.60 492.63 83.62 495.42 81.90
  Q 496.68 81.13 498.02 80.85
  C 501.37 80.14 504.68 77.91 507.70 76.31
  Q 507.75 76.28 511.97 73.81
  C 514.00 72.62 516.30 71.79 518.24 70.61
  C 525.55 66.17 533.36 63.26 540.92 59.40
  C 548.74 55.40 556.72 52.35 564.07 47.40
  C 566.40 45.84 569.09 44.52 571.29 43.13
  Q 578.23 38.74 585.65 35.26
  C 590.58 32.95 596.51 29.39 602.40 27.31
  C 603.20 27.02 603.44 26.38 604.00 26.13
  Q 606.81 24.86 611.06 24.06
  A 1.86 1.83 17.9 0 0 611.92 23.63
  Q 613.82 21.92 614.75 21.54
  Q 621.63 18.69 628.56 15.96
  Q 641.69 10.78 649.91 21.75
  Q 651.26 23.56 651.03 26.61
  Q 650.86 28.81 649.44 31.13
  Q 647.38 34.52 644.66 37.40
  C 642.04 40.17 637.98 42.57 634.76 45.42
  Q 633.69 46.37 632.41 46.83
  C 630.39 47.55 628.82 48.41 626.64 48.24
  Q 625.03 48.12 623.46 47.76
  Q 623.11 47.68 623.12 47.32
  Q 623.12 47.18 623.13 47.06
  Q 623.14 46.97 623.07 46.92
  Q 621.16 45.67 619.37 44.27
  Q 617.12 42.52 615.44 42.51
  Q 612.86 42.50 611.14 44.69
  Q 610.84 45.08 610.35 45.08
  C 607.66 45.10 606.71 47.05 604.38 47.70
  C 602.53 48.23 601.49 48.67 599.99 49.11
  Q 599.71 49.19 599.64 49.44
  Q 599.54 49.76 599.23 49.91
  Q 597.45 50.79 595.53 51.31
  C 593.71 51.81 592.57 52.92 590.90 53.68
  Q 589.59 54.27 587.88 55.31
  C 586.44 56.18 585.02 56.41 583.65 57.25
  Q 580.58 59.11 577.26 60.48
  Q 576.83 60.66 576.63 61.08
  Q 576.45 61.45 576.00 61.39
  Q 575.67 61.35 575.37 61.49
  Q 569.91 64.08 564.67 67.10
  C 563.96 67.51 563.18 67.55 562.42 68.06
  Q 560.78 69.15 559.09 70.15
  Q 559.00 70.21 556.24 72.25
  Q 554.61 73.46 552.50 73.73
  A 2.17 2.15 -64.5 0 0 551.61 74.05
  Q 550.00 75.05 548.24 75.68
  C 547.48 75.96 546.74 77.01 545.81 77.43
  Q 542.89 78.77 540.60 81.20
  Z"
/>
<path fill="#181510" d="
  M 1529.24 223.38
  A 2.22 2.21 68.2 0 0 1526.62 222.25
  Q 1519.06 224.54 1510.75 224.99
  C 1505.12 225.29 1499.33 228.61 1493.54 230.02
  C 1487.80 231.41 1482.93 233.82 1477.37 234.90
  C 1470.16 236.31 1463.86 239.08 1456.72 241.45
  C 1452.86 242.73 1449.36 244.68 1445.60 245.76
  Q 1433.32 249.32 1421.54 254.23
  C 1416.26 256.43 1410.23 257.80 1404.69 260.12
  C 1399.94 262.10 1394.40 262.95 1390.49 264.75
  C 1385.13 267.21 1379.33 269.32 1374.33 271.75
  Q 1358.28 279.53 1342.16 287.18
  C 1337.10 289.59 1332.59 292.76 1327.55 295.13
  C 1321.06 298.19 1315.18 302.95 1308.92 306.56
  C 1303.20 309.86 1299.24 312.97 1294.24 316.96
  C 1286.77 322.94 1277.31 325.08 1269.55 318.50
  C 1264.41 314.14 1263.50 307.93 1265.40 301.70
  A 2.12 2.12 0.0 0 1 1266.80 300.30
  C 1272.11 298.69 1276.32 295.22 1280.93 293.04
  Q 1287.24 290.05 1293.09 286.24
  C 1296.95 283.73 1301.09 282.63 1304.81 280.14
  C 1308.45 277.71 1312.77 276.37 1316.17 274.30
  C 1322.22 270.62 1328.40 267.73 1334.78 264.56
  Q 1338.57 262.68 1343.09 261.24
  C 1352.50 258.23 1360.10 252.20 1369.81 249.87
  C 1374.44 248.75 1379.20 246.42 1383.13 245.34
  C 1386.33 244.46 1389.25 243.86 1392.45 242.46
  Q 1397.28 240.34 1403.00 239.27
  C 1408.00 238.33 1412.22 235.73 1416.97 234.36
  C 1419.45 233.65 1421.71 233.03 1424.20 231.91
  C 1429.36 229.59 1435.61 228.31 1440.04 226.71
  C 1443.76 225.36 1446.96 224.12 1451.10 223.43
  Q 1457.39 222.39 1463.34 220.12
  C 1469.65 217.71 1476.16 217.21 1482.52 214.92
  C 1489.84 212.28 1497.79 211.96 1505.40 209.72
  C 1512.10 207.75 1516.95 207.09 1522.84 205.94
  C 1527.27 205.08 1532.23 202.61 1537.03 202.07
  C 1543.35 201.36 1550.35 207.73 1554.26 212.26
  C 1556.91 215.34 1556.29 228.02 1556.27 232.25
  Q 1556.07 281.75 1555.94 331.25
  C 1555.85 367.83 1556.33 404.42 1556.19 440.99
  Q 1556.07 470.75 1556.44 500.50
  Q 1556.63 516.26 1558.36 523.05
  Q 1559.98 529.40 1562.70 544.51
  C 1565.18 558.23 1575.66 542.95 1578.14 538.88
  Q 1582.36 531.98 1591.84 512.56
  Q 1593.56 509.03 1595.89 503.27
  C 1597.59 499.08 1599.47 495.15 1601.09 490.77
  Q 1602.61 486.66 1604.46 482.68
  C 1607.45 476.27 1609.86 470.43 1613.05 464.53
  Q 1613.86 463.02 1615.08 462.08
  A 0.35 0.35 0.0 0 1 1615.64 462.39
  C 1615.09 468.49 1614.54 474.66 1612.79 480.56
  C 1609.12 492.97 1610.48 505.75 1605.78 517.97
  C 1603.64 523.54 1602.37 530.05 1599.63 535.92
  Q 1598.22 538.93 1597.47 541.79
  C 1596.08 547.08 1593.70 551.09 1591.57 555.69
  Q 1589.51 560.14 1587.25 563.40
  Q 1581.36 571.88 1577.24 576.49
  Q 1574.97 579.03 1570.04 581.30
  C 1565.66 583.32 1563.53 583.62 1558.95 581.40
  C 1555.22 579.59 1550.76 577.91 1548.39 574.30
  Q 1543.75 567.22 1543.14 564.53
  C 1542.25 560.59 1541.38 556.96 1540.00 552.89
  C 1537.61 545.80 1536.77 541.03 1536.26 533.51
  Q 1535.97 529.28 1535.25 525.05
  C 1532.12 506.80 1531.03 492.15 1531.51 473.58
  C 1531.88 459.62 1532.16 446.29 1531.68 431.76
  Q 1530.53 397.27 1531.00 362.75
  C 1531.21 347.34 1530.55 323.09 1530.75 303.24
  Q 1531.13 265.99 1530.42 228.75
  Q 1530.36 225.63 1529.24 223.38
  Z"
/>
<path fill="#181510" d="
  M 1158.34 428.76
  Q 1153.46 431.22 1148.74 433.98
  C 1144.74 436.32 1137.26 437.70 1131.57 439.97
  C 1126.68 441.92 1120.51 443.41 1116.17 439.81
  Q 1108.22 433.23 1106.11 430.36
  Q 1103.77 427.15 1106.96 423.69
  Q 1115.34 414.59 1127.54 413.29
  C 1129.78 413.05 1132.07 412.42 1133.76 411.72
  Q 1143.48 407.67 1153.09 403.35
  C 1155.55 402.24 1158.70 401.80 1161.11 400.53
  C 1166.39 397.77 1170.18 394.26 1170.20 388.00
  C 1170.25 369.88 1169.62 351.47 1171.35 333.43
  Q 1171.65 330.29 1173.70 316.63
  Q 1176.11 300.61 1176.26 281.00
  C 1176.32 272.41 1180.20 263.98 1181.33 254.66
  C 1182.24 247.09 1182.06 239.12 1182.23 231.50
  C 1182.36 225.61 1186.34 222.17 1191.87 225.41
  Q 1195.73 227.68 1199.57 229.08
  A 2.74 2.72 2.3 0 1 1201.26 230.89
  Q 1202.35 234.64 1202.31 238.50
  Q 1202.13 260.12 1200.76 269.26
  Q 1200.34 272.01 1197.98 281.24
  Q 1197.04 284.87 1196.37 295.55
  Q 1196.10 299.85 1195.99 309.96
  Q 1195.81 325.31 1194.11 340.58
  C 1193.83 343.07 1192.80 347.54 1192.55 351.12
  Q 1192.36 353.68 1192.09 355.36
  C 1190.62 364.35 1189.76 373.35 1190.44 382.46
  C 1190.72 386.17 1195.20 386.42 1197.91 386.19
  C 1201.20 385.91 1204.08 383.55 1207.45 382.70
  Q 1213.49 381.19 1219.56 379.84
  C 1225.91 378.42 1232.50 376.16 1239.10 374.59
  C 1243.67 373.51 1249.14 370.73 1253.50 370.29
  Q 1262.85 369.34 1271.82 366.54
  C 1277.30 364.84 1283.65 365.05 1289.36 364.58
  C 1297.16 363.94 1305.07 364.30 1313.00 364.27
  Q 1315.09 364.27 1316.55 365.46
  A 0.51 0.50 39.9 0 1 1316.62 366.18
  C 1314.72 368.36 1313.34 370.03 1310.52 371.11
  C 1308.44 371.91 1306.67 372.60 1304.56 373.78
  C 1300.20 376.21 1295.30 377.06 1291.02 378.88
  Q 1285.35 381.28 1279.33 382.61
  C 1275.86 383.37 1273.48 385.17 1270.29 386.04
  C 1265.58 387.33 1261.04 388.26 1256.34 389.98
  Q 1250.00 392.32 1243.44 393.97
  C 1240.34 394.75 1237.77 396.58 1234.71 397.37
  C 1224.70 399.93 1215.95 403.30 1205.21 407.92
  C 1200.76 409.83 1193.80 413.37 1191.45 417.74
  C 1188.63 422.99 1189.28 431.49 1188.74 437.97
  Q 1188.29 443.45 1188.22 447.54
  Q 1188.04 458.50 1187.53 481.75
  C 1187.34 490.27 1185.86 497.69 1186.86 506.11
  C 1188.38 518.89 1189.44 531.66 1190.26 544.50
  C 1190.69 551.32 1197.14 550.27 1201.18 547.93
  Q 1202.70 547.04 1204.15 544.90
  Q 1211.77 533.67 1220.05 522.92
  Q 1220.75 522.01 1221.76 520.44
  C 1226.41 513.20 1232.26 506.60 1237.44 499.73
  C 1240.91 495.13 1245.55 490.41 1249.27 485.37
  A 2.09 2.09 0.0 0 1 1252.32 485.03
  C 1254.55 486.96 1253.56 491.59 1252.65 494.42
  C 1250.17 502.16 1247.81 509.71 1244.29 517.10
  C 1236.85 532.69 1230.41 543.59 1220.14 557.95
  C 1212.58 568.53 1207.98 579.40 1193.75 582.99
  C 1191.90 583.46 1189.87 582.98 1188.18 581.82
  Q 1179.13 575.60 1173.31 567.19
  C 1170.09 562.53 1169.51 555.54 1167.93 550.07
  C 1165.25 540.80 1164.46 533.50 1164.47 524.25
  Q 1164.51 475.63 1164.85 445.49
  Q 1164.87 444.18 1165.10 438.51
  C 1165.28 434.30 1165.30 425.25 1158.34 428.76
  Z"
/>
<path fill="#181510" d="
  M 1716.46 531.47
  Q 1718.61 529.54 1720.81 527.63
  C 1724.62 524.34 1725.09 521.00 1727.28 516.89
  Q 1731.14 509.62 1735.15 502.44
  Q 1736.46 500.08 1737.45 497.41
  C 1739.29 492.48 1741.65 488.40 1743.53 483.78
  Q 1744.81 480.60 1747.01 476.46
  C 1748.73 473.23 1749.96 469.69 1751.53 466.58
  Q 1754.21 461.25 1756.27 455.63
  C 1757.55 452.12 1759.69 448.93 1761.16 445.38
  Q 1762.96 441.05 1764.67 437.75
  C 1766.41 434.38 1767.73 430.59 1769.33 427.50
  Q 1780.58 405.88 1793.54 385.26
  C 1800.39 374.35 1807.81 364.08 1815.81 355.07
  C 1818.25 352.31 1821.34 350.12 1825.08 348.27
  C 1829.17 346.25 1832.50 343.31 1837.24 342.92
  C 1842.83 342.44 1854.02 341.39 1858.91 344.22
  C 1862.43 346.26 1866.69 353.02 1861.27 355.80
  C 1858.60 357.16 1856.05 358.50 1853.14 359.50
  C 1849.76 360.67 1846.20 361.84 1843.16 363.59
  C 1827.84 372.41 1819.34 385.74 1809.69 401.37
  Q 1800.07 416.96 1793.95 429.93
  Q 1791.75 434.60 1790.19 437.68
  C 1787.33 443.32 1785.21 448.72 1782.57 454.19
  C 1780.97 457.52 1780.53 461.13 1778.76 464.38
  C 1775.73 469.96 1774.00 475.85 1771.22 481.60
  C 1769.51 485.15 1768.39 488.77 1766.58 492.28
  Q 1763.99 497.29 1762.31 502.67
  C 1761.02 506.82 1758.92 510.08 1757.20 513.97
  Q 1755.98 516.74 1753.74 520.77
  C 1752.07 523.79 1750.88 527.21 1749.39 530.03
  C 1746.30 535.84 1743.69 542.64 1740.00 547.35
  C 1735.80 552.71 1729.93 558.85 1723.24 561.45
  C 1719.33 562.97 1712.69 562.13 1709.00 561.54
  C 1696.40 559.51 1691.50 546.45 1686.85 536.39
  C 1684.18 530.61 1684.19 525.48 1682.64 519.59
  C 1680.54 511.62 1678.31 503.64 1678.28 495.32
  Q 1678.22 482.46 1674.44 469.01
  C 1671.93 460.03 1672.93 450.25 1671.49 441.24
  C 1670.66 436.03 1667.96 430.51 1667.12 425.29
  C 1666.44 421.03 1666.10 415.45 1663.87 411.12
  C 1661.32 406.16 1660.32 402.89 1659.09 398.08
  A 2.66 2.66 0.0 0 0 1655.76 396.19
  C 1649.93 397.91 1643.92 399.49 1638.92 402.96
  Q 1634.80 405.82 1631.20 409.20
  Q 1630.03 410.30 1630.19 408.70
  C 1630.52 405.41 1631.55 402.83 1633.24 399.23
  Q 1636.79 391.70 1637.20 383.24
  C 1637.33 380.65 1643.34 374.59 1645.85 372.60
  C 1650.22 369.12 1655.85 369.34 1662.00 370.12
  C 1670.47 371.19 1676.49 377.78 1679.61 385.35
  C 1682.86 393.21 1686.02 399.06 1686.65 408.52
  Q 1686.80 410.84 1690.18 418.35
  C 1691.18 420.57 1691.61 425.29 1691.79 428.47
  C 1692.28 437.26 1692.61 441.61 1695.42 448.81
  C 1698.88 457.69 1697.12 469.31 1699.21 480.63
  Q 1699.56 482.51 1701.41 488.74
  C 1704.20 498.15 1703.76 509.43 1705.81 517.50
  C 1706.51 520.26 1711.21 536.16 1716.46 531.47
  Z"
/>
<path fill="#26221e" d="
  M 406.13 479.38
  C 408.45 472.10 407.71 459.24 411.87 449.62
  Q 413.71 445.37 414.44 438.51
  Q 415.09 432.40 417.38 426.74
  C 421.30 417.06 417.89 405.86 421.70 396.07
  Q 423.58 391.24 426.58 387.54
  Q 435.41 376.66 440.48 365.74
  Q 441.99 362.46 447.61 355.42
  C 449.95 352.49 450.02 349.00 454.37 348.39
  C 461.04 347.46 467.99 348.63 469.22 356.57
  Q 469.59 359.01 470.02 361.47
  A 1.47 1.43 17.7 0 0 470.44 362.26
  C 472.19 363.98 474.71 364.00 477.16 364.05
  C 480.25 364.12 484.09 365.17 486.30 366.15
  C 496.35 370.59 505.08 375.56 511.00 384.77
  C 514.16 389.70 517.23 394.02 519.81 399.88
  C 522.24 405.37 523.18 411.98 525.22 418.07
  Q 526.58 422.15 526.88 425.59
  Q 527.69 435.16 527.83 444.75
  Q 527.93 452.38 526.70 456.51
  C 525.20 461.53 523.57 466.08 522.64 471.46
  Q 521.71 476.80 520.71 478.72
  C 516.70 486.40 516.66 494.07 513.42 501.84
  Q 512.29 504.56 511.21 507.71
  C 509.71 512.06 507.20 516.45 505.71 520.23
  C 502.12 529.37 497.43 538.19 492.18 548.44
  C 490.66 551.41 488.45 554.33 486.74 557.38
  Q 477.01 574.72 472.41 581.17
  C 464.11 592.78 455.40 600.54 444.98 608.68
  Q 443.85 609.56 442.50 610.03
  C 437.98 611.58 430.14 614.35 425.49 612.95
  C 421.93 611.87 418.07 611.12 415.08 609.16
  C 410.04 605.87 408.04 600.97 405.47 596.13
  Q 403.41 592.26 402.59 588.50
  Q 399.69 575.18 400.04 561.50
  Q 401.15 517.34 402.97 493.00
  Q 403.34 488.09 406.13 479.38
  Z
  M 482.55 519.46
  C 484.98 514.59 486.87 509.25 489.14 504.20
  Q 489.96 502.37 490.42 500.15
  Q 491.65 494.15 493.96 488.51
  Q 496.24 482.96 497.20 479.53
  C 498.88 473.57 501.56 467.36 502.39 461.25
  C 504.58 445.09 504.65 429.01 502.49 412.84
  C 501.91 408.47 499.95 405.05 498.17 401.10
  Q 495.92 396.13 493.32 393.05
  C 485.05 383.26 477.18 380.08 464.49 383.17
  C 460.44 384.15 452.95 388.25 451.71 392.50
  C 451.13 394.50 450.65 396.14 449.60 398.10
  Q 444.90 406.85 444.75 416.81
  C 444.71 419.46 444.43 424.08 443.48 425.49
  C 440.45 429.95 435.29 436.23 434.39 441.45
  Q 432.62 451.79 430.40 462.04
  C 428.29 471.82 426.95 482.06 424.91 492.04
  C 424.10 496.01 423.86 499.97 423.38 504.00
  Q 422.76 509.24 422.58 513.03
  Q 420.92 547.88 422.32 582.75
  Q 422.48 586.77 425.99 587.60
  Q 432.32 589.09 437.59 584.57
  Q 448.91 574.86 458.25 563.28
  C 462.05 558.57 464.95 553.39 467.80 548.05
  Q 475.37 533.86 482.55 519.46
  Z"
/>
<path fill="#181510" d="
  M 2140.49 518.90
  L 2143.34 520.72
  Q 2143.72 520.96 2144.17 520.92
  C 2148.05 520.57 2151.84 515.56 2153.86 512.37
  Q 2166.34 492.66 2181.35 463.06
  Q 2189.56 446.87 2193.09 438.77
  C 2194.52 435.47 2196.35 432.80 2197.76 429.62
  C 2206.43 410.01 2215.06 390.55 2225.59 371.85
  C 2230.31 363.47 2235.15 358.39 2244.85 359.02
  C 2255.57 359.72 2262.93 368.68 2269.41 376.04
  A 4.40 4.38 -71.4 0 1 2270.41 378.07
  Q 2271.18 381.99 2273.42 385.68
  C 2275.20 388.60 2276.29 391.72 2276.94 394.94
  C 2277.81 399.29 2280.50 402.86 2281.44 406.42
  C 2282.99 412.30 2282.69 417.64 2286.15 423.27
  C 2288.26 426.71 2288.38 430.97 2289.16 434.73
  Q 2289.61 436.87 2291.18 439.87
  C 2294.83 446.80 2294.34 454.14 2298.07 461.49
  C 2299.58 464.47 2300.00 469.28 2300.92 473.03
  C 2302.16 478.18 2305.02 482.55 2306.12 487.92
  Q 2307.29 493.62 2309.86 498.85
  C 2311.63 502.47 2312.09 506.17 2313.92 509.52
  C 2316.32 513.92 2318.25 518.10 2321.13 522.46
  C 2322.96 525.23 2324.44 528.23 2326.47 530.69
  Q 2333.05 538.67 2338.83 542.43
  C 2346.96 547.73 2363.13 551.63 2373.19 546.99
  C 2378.92 544.34 2384.99 543.33 2390.77 540.86
  Q 2400.79 536.57 2406.95 531.96
  Q 2416.04 525.16 2418.98 523.51
  Q 2425.57 519.82 2431.40 515.06
  C 2435.43 511.78 2439.00 508.75 2442.04 507.07
  C 2451.44 501.87 2461.09 493.54 2471.22 487.07
  C 2479.25 481.94 2486.35 475.23 2493.52 470.05
  C 2496.38 467.99 2499.92 466.21 2502.76 464.25
  Q 2511.36 458.27 2520.25 452.75
  Q 2521.86 451.75 2523.72 451.72
  A 0.51 0.51 0.0 0 1 2524.24 452.27
  Q 2524.06 454.42 2522.85 456.12
  C 2516.07 465.61 2510.96 476.46 2502.50 484.67
  C 2495.54 491.42 2489.21 499.41 2481.33 505.04
  Q 2468.11 514.49 2455.71 525.01
  C 2450.40 529.51 2443.92 534.32 2438.29 539.35
  C 2431.84 545.13 2425.92 549.15 2419.18 553.64
  C 2414.17 556.97 2408.35 559.95 2402.91 563.15
  Q 2399.14 565.37 2395.01 566.92
  C 2387.20 569.85 2381.30 572.36 2372.65 572.64
  Q 2361.89 572.99 2351.13 572.62
  C 2346.24 572.45 2342.94 571.64 2338.33 569.13
  C 2334.57 567.08 2330.35 565.54 2327.03 563.36
  C 2310.14 552.25 2299.51 534.70 2291.98 516.20
  C 2290.13 511.66 2287.97 507.38 2286.43 502.73
  C 2284.48 496.83 2281.73 491.28 2280.70 485.11
  C 2279.49 477.97 2276.12 472.09 2274.58 465.17
  C 2273.19 458.92 2270.05 453.58 2269.04 447.29
  C 2268.16 441.86 2266.46 437.76 2264.67 432.62
  C 2263.44 429.11 2263.12 425.47 2262.51 421.77
  C 2261.65 416.64 2259.19 412.37 2257.66 407.44
  Q 2255.04 399.03 2249.02 389.18
  C 2247.18 386.17 2245.86 386.98 2243.83 389.12
  C 2241.38 391.71 2238.45 393.97 2236.44 396.67
  C 2231.89 402.79 2229.47 409.04 2226.20 415.65
  C 2223.80 420.48 2222.18 425.55 2219.60 430.33
  C 2218.16 433.00 2217.00 438.11 2215.14 441.69
  C 2211.86 448.01 2210.34 454.70 2207.10 461.10
  C 2205.74 463.81 2204.82 467.04 2203.25 469.89
  C 2200.73 474.44 2199.75 478.56 2197.52 482.77
  C 2192.06 493.09 2186.57 503.60 2181.74 514.23
  C 2177.62 523.28 2172.31 533.45 2165.71 540.95
  C 2159.76 547.72 2152.96 550.70 2145.76 554.75
  C 2143.28 556.14 2140.76 555.61 2138.11 554.27
  C 2134.08 552.23 2129.63 550.91 2126.32 548.25
  Q 2120.23 543.35 2116.88 536.33
  C 2114.90 532.17 2114.68 526.20 2113.20 522.49
  Q 2109.61 513.48 2109.49 503.75
  C 2109.22 481.50 2110.59 459.48 2105.96 437.51
  C 2105.18 433.81 2104.38 430.27 2104.20 426.44
  Q 2103.53 412.05 2103.06 397.64
  C 2102.97 394.94 2102.45 391.25 2101.65 389.21
  C 2099.72 384.29 2095.10 389.98 2093.82 391.83
  Q 2086.19 402.87 2081.26 415.31
  C 2079.77 419.05 2077.10 423.11 2076.08 426.32
  C 2074.89 430.07 2072.70 433.56 2071.47 436.95
  C 2069.14 443.33 2066.22 449.38 2063.61 455.64
  C 2062.59 458.09 2060.98 460.40 2060.00 462.59
  C 2057.21 468.80 2054.30 474.56 2051.38 481.06
  C 2050.05 484.01 2048.00 487.04 2046.74 489.48
  Q 2044.12 494.56 2041.56 499.67
  Q 2039.10 504.60 2035.99 509.62
  C 2030.18 518.99 2025.14 528.79 2019.35 538.14
  C 2017.54 541.07 2016.07 544.14 2013.72 546.55
  Q 2009.97 550.42 2004.80 554.30
  C 2001.87 556.50 1999.62 556.58 1996.11 555.24
  Q 1987.73 552.06 1981.44 545.56
  C 1978.69 542.72 1975.29 540.04 1974.03 536.13
  C 1972.84 532.42 1971.97 529.66 1970.26 525.17
  Q 1967.91 519.02 1967.76 511.50
  Q 1967.39 493.17 1967.08 474.83
  C 1966.90 464.39 1965.40 452.59 1964.93 443.50
  Q 1964.51 435.52 1961.29 429.02
  C 1960.46 427.35 1959.15 426.44 1957.77 425.28
  A 0.83 0.82 51.7 0 0 1956.86 425.17
  Q 1954.20 426.52 1953.46 429.24
  C 1951.91 434.88 1948.61 440.27 1946.83 444.10
  C 1944.10 449.97 1940.38 456.62 1938.03 461.33
  Q 1932.99 471.41 1928.01 481.52
  C 1926.34 484.90 1924.12 488.45 1922.30 492.03
  C 1920.45 495.67 1917.72 499.31 1915.72 503.20
  C 1914.03 506.47 1911.77 509.35 1910.17 512.74
  C 1907.61 518.15 1904.28 523.16 1901.14 528.07
  C 1895.19 537.36 1891.51 543.70 1885.24 549.98
  C 1878.24 556.98 1866.78 559.72 1858.67 552.53
  Q 1854.31 548.68 1850.57 544.40
  A 2.41 2.38 -69.0 0 1 1849.99 543.07
  Q 1848.68 530.86 1850.09 518.41
  C 1850.68 513.19 1852.97 509.09 1854.22 504.13
  Q 1854.86 501.60 1855.45 499.07
  C 1856.47 494.75 1858.42 490.84 1860.21 486.84
  C 1861.35 484.28 1861.78 481.43 1863.02 478.91
  C 1866.01 472.82 1868.03 466.64 1871.22 460.47
  C 1872.77 457.46 1873.71 454.17 1875.24 451.35
  C 1879.25 443.95 1882.72 436.03 1887.43 429.01
  Q 1889.49 425.95 1891.30 422.73
  C 1901.80 404.02 1914.40 386.55 1929.69 371.50
  C 1936.02 365.28 1943.91 359.92 1951.22 355.21
  C 1954.00 353.41 1956.31 353.88 1959.08 355.76
  C 1963.33 358.64 1967.78 361.07 1971.87 364.41
  C 1976.09 367.85 1979.34 373.07 1981.95 377.78
  C 1986.36 385.69 1987.29 395.83 1987.33 404.75
  C 1987.45 424.86 1986.49 443.69 1990.68 464.69
  Q 1991.56 469.11 1991.66 473.90
  C 1991.79 479.88 1992.41 486.08 1992.60 491.70
  Q 1992.96 502.43 1993.95 513.11
  Q 1994.19 515.76 1995.56 518.58
  A 1.54 1.54 0.0 0 0 1997.57 519.32
  Q 1999.38 518.52 2001.40 517.78
  Q 2006.17 516.02 2007.71 512.74
  C 2013.62 500.14 2021.92 489.01 2028.49 476.88
  Q 2032.56 469.37 2036.51 461.78
  C 2038.26 458.42 2039.78 454.14 2041.79 450.43
  Q 2043.83 446.67 2045.35 443.42
  C 2048.98 435.67 2052.06 429.30 2056.45 418.25
  Q 2057.71 415.07 2060.07 410.47
  C 2061.82 407.07 2063.38 403.25 2064.95 400.13
  Q 2067.70 394.71 2070.43 389.28
  C 2077.99 374.27 2084.02 358.26 2098.78 349.09
  C 2100.83 347.82 2103.65 348.36 2105.90 349.54
  C 2109.81 351.58 2114.27 353.35 2117.00 356.91
  C 2120.23 361.14 2122.24 364.50 2123.92 370.02
  C 2124.96 373.43 2126.45 376.65 2126.98 380.10
  C 2129.94 399.13 2128.46 417.77 2129.68 436.68
  C 2129.95 440.97 2131.07 445.42 2131.67 449.78
  C 2132.13 453.14 2133.54 456.81 2133.87 459.49
  Q 2135.45 472.18 2135.31 489.15
  C 2135.27 494.59 2135.39 500.63 2136.56 505.85
  Q 2137.77 511.25 2138.76 516.36
  Q 2139.07 518.00 2140.49 518.90
  Z
  M 1915.38 432.66
  Q 1913.79 432.26 1912.97 433.48
  Q 1907.17 442.12 1899.98 454.00
  Q 1896.32 460.04 1888.51 478.50
  C 1887.42 481.08 1886.90 484.40 1885.84 487.25
  Q 1883.86 492.60 1882.46 498.54
  Q 1881.76 501.52 1884.51 500.17
  Q 1884.78 500.04 1885.76 498.80
  Q 1886.07 498.40 1886.06 497.90
  Q 1886.03 495.45 1886.86 494.05
  Q 1888.83 490.76 1889.42 494.55
  C 1889.65 496.02 1887.76 498.58 1888.14 500.26
  A 0.50 0.50 0.0 0 0 1888.97 500.52
  Q 1894.41 495.48 1897.81 489.31
  Q 1906.18 474.11 1913.44 458.36
  Q 1917.14 450.34 1920.69 442.27
  Q 1920.73 442.19 1921.94 439.81
  Q 1922.72 438.28 1923.24 436.32
  Q 1922.86 436.57 1922.59 436.50
  Q 1922.42 436.45 1922.48 436.28
  Q 1922.57 436.07 1922.76 436.13
  Q 1923.08 436.23 1923.19 435.92
  L 1924.74 431.55
  Q 1924.80 431.37 1924.99 431.37
  L 1925.29 431.37
  Q 1925.51 431.37 1925.61 431.17
  Q 1929.73 422.50 1933.87 413.82
  C 1935.53 410.32 1936.80 406.41 1938.38 402.83
  Q 1939.15 401.06 1937.43 401.92
  Q 1935.81 402.73 1934.33 403.73
  Q 1932.98 404.64 1931.89 406.25
  Q 1927.35 412.95 1922.65 419.55
  Q 1921.68 420.91 1920.23 423.54
  Q 1919.12 425.53 1917.74 427.34
  Q 1917.48 427.68 1917.40 428.11
  Q 1917.11 429.69 1916.12 430.95
  Q 1915.83 431.32 1915.85 431.78
  Q 1915.96 433.96 1915.38 432.66
  Z
  M 1959.8375 426.3703
  A 1.13 0.75 82.5 0 0 1960.4336 425.1521
  A 1.13 0.75 82.5 0 0 1959.5425 424.1297
  A 1.13 0.75 82.5 0 0 1958.9464 425.3479
  A 1.13 0.75 82.5 0 0 1959.8375 426.3703
  Z
  M 1885.6878 502.2757
  A 0.88 0.88 0.0 0 0 1885.2176 501.1234
  L 1885.0886 501.0692
  A 0.88 0.88 0.0 0 0 1883.9363 501.5394
  L 1880.0922 510.6843
  A 0.88 0.88 0.0 0 0 1880.5624 511.8366
  L 1880.6914 511.8908
  A 0.88 0.88 0.0 0 0 1881.8437 511.4206
  L 1885.6878 502.2757
  Z"
/>
<path fill="#26221e" d="
  M 635.91 461.79
  Q 635.62 469.84 640.02 469.25
  C 645.01 466.44 646.36 459.46 648.86 454.41
  C 650.91 450.27 651.73 446.13 653.59 442.05
  C 655.75 437.33 657.30 432.16 659.40 427.77
  Q 664.31 417.47 669.11 407.13
  C 671.25 402.53 673.84 398.06 676.56 393.00
  Q 682.21 382.49 693.54 377.35
  C 696.73 375.90 709.39 380.47 712.15 382.68
  Q 721.97 390.56 727.43 401.82
  C 729.02 405.09 730.06 409.56 731.23 412.51
  C 733.21 417.52 734.40 420.76 734.89 426.32
  C 735.93 437.82 739.15 448.70 740.22 460.14
  C 741.53 474.04 741.20 488.53 741.10 502.50
  C 741.07 506.62 740.79 520.30 744.61 522.69
  C 748.02 524.81 751.73 516.91 752.62 514.70
  C 755.69 507.07 759.30 500.12 762.87 491.33
  C 768.41 477.67 775.57 465.17 781.50 451.80
  C 787.30 438.73 793.07 426.22 798.40 412.19
  C 801.37 404.39 805.33 397.78 809.03 390.81
  Q 811.85 385.50 813.39 382.93
  C 817.13 376.67 821.24 367.53 829.74 369.60
  C 841.08 372.36 846.86 383.11 847.08 394.34
  C 847.73 426.13 847.47 458.11 845.07 489.82
  Q 844.78 493.72 844.82 497.18
  C 844.96 507.87 844.74 518.71 846.05 529.16
  Q 846.98 536.56 848.14 543.93
  Q 848.73 547.61 852.32 548.31
  Q 861.29 550.05 870.00 548.15
  A 0.86 0.85 82.0 0 1 871.04 548.94
  Q 871.23 551.87 871.25 554.51
  C 871.32 562.25 864.30 566.40 858.52 570.27
  C 855.66 572.18 852.86 572.51 849.49 571.28
  C 840.59 568.03 835.83 562.44 829.89 555.55
  A 6.61 6.58 -73.5 0 1 828.54 553.05
  Q 825.70 543.14 822.72 533.35
  Q 822.33 532.07 822.27 530.75
  Q 821.11 505.54 822.94 480.41
  Q 823.76 469.15 823.79 461.56
  C 823.84 450.92 823.59 440.68 824.77 430.10
  Q 825.34 427.68 825.79 425.32
  Q 826.13 423.53 825.97 421.67
  C 825.78 419.56 826.08 416.23 823.70 415.32
  Q 823.20 415.14 822.77 415.43
  C 821.28 416.45 817.89 417.52 817.19 419.55
  C 813.16 421.94 812.29 426.99 810.85 431.09
  C 809.50 434.97 807.13 439.28 805.67 443.63
  Q 804.52 447.05 803.07 449.92
  C 801.07 453.85 799.60 458.12 797.58 461.85
  C 796.33 464.17 795.09 466.33 794.07 468.86
  C 792.31 473.24 790.00 477.45 788.42 481.71
  C 783.43 495.09 777.04 507.44 771.67 519.61
  Q 767.64 528.75 763.16 537.56
  Q 758.65 546.43 754.53 555.50
  C 752.98 558.93 752.22 564.24 750.33 568.64
  C 746.92 576.62 745.97 584.78 741.10 591.84
  C 739.29 594.46 733.93 595.06 731.00 595.41
  Q 723.88 596.27 718.73 590.51
  Q 716.15 587.63 715.94 584.87
  Q 715.21 575.25 715.86 565.66
  Q 716.17 561.00 718.02 552.48
  C 721.72 535.38 721.37 521.11 721.43 500.75
  Q 721.49 481.97 719.88 463.25
  C 719.66 460.67 719.18 457.36 718.32 454.36
  Q 715.57 444.77 715.04 434.75
  C 714.68 427.80 710.37 417.58 708.48 409.49
  C 708.05 407.62 705.96 404.96 703.78 404.40
  C 696.42 402.49 692.46 408.96 689.35 414.35
  Q 683.97 423.69 679.08 433.29
  C 676.65 438.06 675.04 443.47 672.87 448.62
  C 670.89 453.32 669.75 458.67 668.29 462.51
  Q 665.54 469.77 664.08 474.27
  Q 662.93 477.82 660.93 482.55
  C 658.67 487.90 658.02 493.56 655.88 498.74
  C 653.26 505.09 652.40 510.54 651.11 516.67
  C 650.11 521.43 647.81 525.69 646.90 530.54
  C 646.18 534.40 645.49 537.37 643.74 541.29
  Q 641.53 546.22 640.87 551.14
  Q 639.44 561.89 636.90 570.67
  C 636.24 572.95 637.79 576.67 638.36 579.38
  C 639.89 586.74 633.37 592.35 626.94 593.66
  C 620.92 594.89 614.83 586.90 610.52 582.58
  A 2.91 2.91 0.0 0 1 609.68 580.44
  C 609.79 576.58 610.30 573.81 611.69 569.67
  C 613.98 562.80 613.86 551.65 614.00 546.63
  Q 615.42 496.26 614.63 469.50
  Q 613.69 437.87 612.25 406.25
  C 611.95 399.58 610.41 393.04 610.50 386.51
  Q 610.57 381.62 610.44 376.73
  Q 610.43 376.23 610.68 375.80
  Q 613.31 371.21 615.33 366.37
  Q 616.03 364.71 618.43 364.62
  C 628.66 364.25 633.98 372.78 634.25 381.98
  Q 634.70 397.82 634.24 413.64
  C 633.91 425.01 634.72 434.65 635.02 447.94
  Q 635.17 454.98 635.91 461.79
  Z"
/>
<path fill="#26221e" d="
  M 1037.15 434.23
  Q 1036.63 431.78 1034.22 432.49
  Q 1034.08 432.53 1033.17 433.91
  Q 1030.50 437.94 1027.92 442.03
  C 1022.59 450.48 1019.01 459.88 1014.27 468.64
  Q 1008.96 478.48 1003.58 488.27
  C 1001.17 492.69 999.58 497.72 997.29 501.79
  Q 993.12 509.21 989.06 516.70
  C 985.79 522.71 980.70 530.32 977.23 537.64
  Q 973.70 545.10 971.43 548.87
  C 965.76 558.29 960.30 567.45 952.97 575.71
  Q 946.01 583.55 935.39 583.39
  C 928.26 583.28 922.68 577.20 918.60 572.00
  C 916.78 569.67 916.33 566.79 914.83 564.21
  Q 910.80 557.29 910.49 549.75
  Q 909.94 536.38 910.19 523.00
  Q 910.35 514.59 911.26 508.99
  C 912.11 503.83 915.21 498.92 915.91 493.50
  C 916.94 485.56 919.62 480.48 922.00 473.80
  C 923.92 468.41 926.34 463.07 928.25 457.57
  Q 929.68 453.45 931.77 449.14
  C 936.14 440.13 939.62 431.00 944.85 422.60
  Q 949.84 414.57 954.78 406.51
  Q 960.80 396.69 974.25 380.12
  Q 978.12 375.36 981.50 373.14
  C 986.54 369.84 992.10 367.57 998.36 368.19
  C 1005.30 368.87 1011.05 370.50 1016.22 375.06
  C 1020.55 378.89 1023.16 382.81 1028.89 379.77
  C 1033.57 377.29 1037.56 374.05 1043.49 376.25
  C 1049.45 378.47 1051.78 380.61 1054.16 386.84
  C 1057.11 394.57 1059.30 399.60 1059.90 409.30
  C 1060.75 422.95 1060.20 442.52 1060.80 458.82
  C 1061.03 465.09 1060.68 471.63 1060.77 478.06
  C 1060.95 492.08 1060.27 506.29 1059.90 520.32
  Q 1059.67 529.48 1061.02 534.95
  Q 1062.05 539.10 1066.26 537.28
  C 1069.01 536.09 1073.20 526.37 1075.62 523.22
  Q 1077.63 520.61 1079.46 517.87
  Q 1084.83 509.81 1091.14 502.29
  A 2.06 2.05 13.0 0 1 1092.22 501.62
  Q 1093.85 501.23 1093.88 503.00
  C 1093.95 507.12 1093.97 510.82 1092.51 514.85
  C 1090.15 521.38 1088.45 527.38 1085.54 534.25
  C 1083.70 538.63 1082.31 543.51 1080.71 547.53
  C 1078.71 552.55 1077.09 558.51 1074.03 562.55
  C 1070.90 566.66 1066.95 570.69 1061.99 572.55
  C 1055.47 575.01 1047.92 568.35 1045.62 562.88
  C 1042.71 555.96 1040.92 551.87 1040.49 545.25
  Q 1039.25 526.20 1039.43 507.11
  C 1039.54 494.66 1039.33 484.16 1039.28 472.68
  C 1039.25 464.72 1038.61 454.89 1038.74 445.97
  C 1038.80 441.81 1037.98 438.16 1037.15 434.23
  Z
  M 933.18 519.56
  C 931.72 527.97 932.73 538.36 933.94 545.98
  Q 934.86 551.72 939.71 554.59
  A 1.39 1.39 0.0 0 0 940.67 554.75
  C 943.66 554.13 947.07 547.76 948.54 545.20
  C 952.85 537.63 957.63 530.18 962.23 522.81
  C 973.74 504.37 981.47 491.18 990.23 472.50
  C 991.31 470.19 993.02 467.74 994.17 465.20
  Q 996.41 460.25 996.76 459.57
  C 1001.51 450.44 1004.42 443.26 1008.23 435.14
  C 1011.45 428.27 1013.70 421.57 1016.46 414.77
  Q 1017.52 412.16 1017.20 409.57
  Q 1016.96 407.61 1015.05 405.78
  Q 1008.75 399.75 1002.04 394.19
  C 994.23 387.73 982.85 405.07 979.22 410.20
  Q 970.63 422.36 962.75 434.98
  C 954.53 448.14 950.54 463.22 944.35 477.29
  C 942.19 482.20 941.31 487.34 939.62 491.97
  Q 937.26 498.44 936.82 500.18
  C 935.25 506.53 934.31 513.11 933.18 519.56
  Z
  M 1012.8619 401.4060
  A 3.23 0.42 44.8 0 0 1010.8659 398.8320
  A 3.23 0.42 44.8 0 0 1008.2781 396.8540
  A 3.23 0.42 44.8 0 0 1010.2741 399.4280
  A 3.23 0.42 44.8 0 0 1012.8619 401.4060
  Z"
/>
<path fill="#181510" d="
  M 1390.22 456.21
  C 1387.28 457.43 1385.36 464.17 1383.26 468.20
  C 1378.14 478.07 1375.11 488.86 1370.01 498.77
  C 1368.65 501.42 1367.47 504.12 1365.97 506.70
  C 1362.82 512.14 1360.08 518.30 1357.08 523.18
  C 1354.67 527.12 1352.20 530.89 1350.16 535.09
  C 1345.33 545.07 1341.51 550.50 1336.30 558.78
  C 1332.74 564.44 1326.26 571.25 1319.62 572.78
  C 1313.25 574.25 1306.38 571.96 1302.05 567.01
  Q 1300.50 565.24 1299.47 561.86
  C 1297.84 556.53 1295.42 553.38 1296.89 547.28
  C 1298.17 542.01 1298.46 536.30 1299.34 531.37
  C 1300.35 525.70 1300.26 520.16 1302.80 514.58
  Q 1305.85 507.88 1306.70 500.52
  Q 1307.14 496.69 1309.94 490.20
  C 1312.09 485.20 1311.90 478.40 1314.54 472.60
  C 1317.22 466.72 1318.48 461.27 1321.22 455.90
  C 1323.24 451.95 1324.66 447.50 1326.42 443.77
  C 1328.72 438.92 1330.82 433.43 1332.93 429.11
  C 1341.88 410.86 1352.47 393.48 1365.68 377.72
  Q 1366.40 376.86 1368.41 375.75
  Q 1373.10 373.17 1377.78 370.56
  C 1380.75 368.91 1383.64 369.35 1386.26 371.67
  Q 1391.17 376.01 1394.62 381.59
  C 1397.32 385.95 1396.87 391.18 1400.46 395.58
  Q 1403.54 399.35 1406.40 402.49
  A 9.28 9.20 -74.7 0 1 1408.38 406.00
  C 1409.62 410.13 1411.63 413.99 1412.31 418.14
  Q 1414.13 429.20 1414.84 443.25
  Q 1415.27 451.67 1418.66 461.23
  Q 1419.96 464.88 1420.81 477.42
  C 1420.91 478.93 1421.49 480.94 1422.22 482.26
  C 1425.36 487.91 1425.71 492.77 1426.92 498.52
  C 1427.96 503.46 1430.33 508.44 1432.00 513.40
  C 1432.96 516.26 1432.55 518.82 1435.70 520.97
  Q 1437.07 521.90 1442.74 522.33
  C 1450.85 522.95 1455.64 512.20 1459.67 508.24
  Q 1463.34 504.62 1468.16 502.47
  A 2.45 2.44 -51.0 0 1 1469.65 502.31
  C 1473.47 503.11 1471.52 511.49 1470.88 513.98
  Q 1468.86 521.85 1467.00 529.76
  C 1465.84 534.67 1457.98 541.40 1454.59 543.37
  Q 1451.40 545.23 1445.55 546.72
  Q 1443.05 547.36 1440.43 546.83
  Q 1433.58 545.44 1430.72 544.11
  C 1425.60 541.72 1420.11 535.44 1415.65 530.14
  Q 1413.72 527.84 1412.60 524.91
  C 1410.43 519.21 1407.54 513.53 1406.37 507.51
  C 1405.13 501.10 1401.75 495.42 1401.03 489.50
  Q 1400.16 482.39 1399.24 479.26
  Q 1396.23 468.99 1392.98 458.80
  Q 1392.47 457.21 1391.22 456.32
  A 1.04 1.04 0.0 0 0 1390.22 456.21
  Z
  M 1329.65 517.07
  Q 1329.65 517.64 1329.66 518.16
  Q 1329.67 518.67 1330.11 519.17
  Q 1330.71 519.84 1331.34 520.54
  Q 1331.60 520.82 1331.82 520.52
  C 1332.69 519.31 1333.74 518.19 1334.42 516.94
  C 1337.83 510.72 1341.84 504.54 1344.89 498.52
  C 1353.11 482.28 1360.88 465.68 1368.43 450.09
  C 1370.81 445.16 1372.20 440.16 1373.88 435.06
  Q 1374.97 431.74 1374.46 428.94
  A 2.33 2.32 -0.2 0 0 1372.57 427.07
  C 1369.71 426.57 1366.53 425.77 1363.82 426.65
  C 1355.46 429.37 1350.76 446.03 1347.16 453.77
  C 1344.96 458.52 1343.11 463.84 1340.80 468.80
  C 1338.00 474.80 1337.36 480.90 1334.72 486.78
  C 1332.53 491.67 1331.54 497.40 1330.41 502.62
  C 1329.68 506.01 1327.89 510.81 1327.55 515.49
  A 0.87 0.87 0.0 0 0 1328.62 516.40
  Q 1328.95 516.32 1329.23 516.43
  Q 1329.66 516.61 1329.65 517.07
  Z"
/>
<ellipse fill="#181510" cx="0.00" cy="0.00" transform="translate(1010.57,399.13) rotate(44.8)" rx="3.23" ry="0.42"/>
<path fill="#26221e" d="
  M 1923.24 436.32
  L 1921.33 437.97
  A 1.80 1.72 -25.2 0 1 1918.40 436.99
  Q 1918.25 435.88 1916.87 435.45
  Q 1915.68 435.07 1915.38 434.62
  Q 1914.80 433.76 1915.38 432.66
  Q 1915.96 433.96 1915.85 431.78
  Q 1915.83 431.32 1916.12 430.95
  Q 1917.11 429.69 1917.40 428.11
  Q 1917.48 427.68 1917.74 427.34
  Q 1919.12 425.53 1920.23 423.54
  Q 1921.68 420.91 1922.65 419.55
  Q 1927.35 412.95 1931.89 406.25
  Q 1932.98 404.64 1934.33 403.73
  Q 1935.81 402.73 1937.43 401.92
  Q 1939.15 401.06 1938.38 402.83
  C 1936.80 406.41 1935.53 410.32 1933.87 413.82
  Q 1929.73 422.50 1925.61 431.17
  Q 1925.51 431.37 1925.29 431.37
  L 1924.99 431.37
  Q 1924.80 431.37 1924.74 431.55
  L 1923.19 435.92
  Q 1923.08 436.23 1922.76 436.13
  Q 1922.57 436.07 1922.48 436.28
  Q 1922.42 436.45 1922.59 436.50
  Q 1922.86 436.57 1923.24 436.32
  Z"
/>
<path fill="#181510" d="
  M 824.77 430.10
  C 825.04 425.77 825.93 418.80 823.96 416.52
  Q 823.67 416.19 823.25 416.30
  C 822.16 416.59 821.66 417.25 821.84 418.42
  Q 822.07 419.95 822.16 421.48
  Q 822.21 422.19 821.86 422.52
  A 0.42 0.42 0.0 0 1 821.22 422.46
  Q 820.13 420.95 819.67 419.11
  A 0.62 0.61 -13.0 0 0 818.94 418.66
  Q 818.00 418.87 817.19 419.55
  C 817.89 417.52 821.28 416.45 822.77 415.43
  Q 823.20 415.14 823.70 415.32
  C 826.08 416.23 825.78 419.56 825.97 421.67
  Q 826.13 423.53 825.79 425.32
  Q 825.34 427.68 824.77 430.10
  Z"
/>
<ellipse fill="#26221e" cx="0.00" cy="0.00" transform="translate(1959.69,425.25) rotate(82.5)" rx="1.13" ry="0.75"/>
<rect fill="#181510" x="-0.58" y="-3.54" transform="translate(1033.80,441.69) rotate(-3.9)" width="1.16" height="7.08" rx="0.54"/>
<path fill="#181510" d="
  M 635.91 461.79
  Q 636.26 468.16 640.02 469.25
  Q 635.62 469.84 635.91 461.79
  Z"
/>
<rect fill="#26221e" x="-0.95" y="-5.84" transform="translate(1882.89,506.48) rotate(22.8)" width="1.90" height="11.68" rx="0.88"/>
</svg>
